<svg width="43" height="48" viewBox="0 0 43 48" fill="none" xmlns="http://www.w3.org/2000/svg">
<g clip-path="url(#clip0_2_1537)">
<path d="M18.4228 45.9728L37.0307 27.9889L31.6265 22.4667L18.5492 35.1018L5.8358 22.1056L0.273944 27.4743L18.3763 45.9721L18.3973 45.9468L18.4228 45.9728Z" fill="black"/>
<path d="M21.4357 44.7828L40.0435 26.799L34.6393 21.2767L21.5621 33.9119L8.84884 20.9157L3.28699 26.2844L21.3892 44.7821L21.4103 44.7567L21.4357 44.7828Z" fill="#01FFA9" stroke="black" stroke-width="4" stroke-miterlimit="10"/>
<path d="M18.6862 27.1583L37.2941 9.17953L31.8898 3.65728L18.8126 16.2873L6.09914 3.29621L0.537281 8.66493L18.6397 27.1576L18.6607 27.1374L18.6862 27.1583Z" fill="black"/>
<path d="M21.6991 25.9684L40.3068 7.98966L34.9027 2.4674L21.8255 15.0975L9.11218 2.10633L3.55033 7.47506L21.6526 25.9678L21.6736 25.9475L21.6991 25.9684Z" fill="#01FFA9" stroke="black" stroke-width="4" stroke-miterlimit="10"/>
</g>
<defs>
<clipPath id="clip0_2_1537">
<rect width="47.0448" height="41.744" fill="white" transform="translate(42.3985 0.584351) rotate(90.8021)"/>
</clipPath>
</defs>
</svg>
