<svg width="148" height="45" viewBox="0 0 148 45" fill="none" xmlns="http://www.w3.org/2000/svg">
<path d="M106.724 24.7083L88.211 43.4149L83.1832 38.331L96.3176 25.0628L96.6658 24.7111L96.3177 24.3593L83.1832 11.0858L88.2109 6.0069L106.724 24.7083Z" fill="white" stroke="#EBE2E2"/>
<path d="M106.107 21.5186L86.9145 2.1311L81.1833 7.92063L94.6658 21.5459L81.1833 35.1658L86.9145 40.9607L106.107 21.5678L106.085 21.5459L106.107 21.5186Z" fill="#01FFA9" stroke="black" stroke-width="2" stroke-miterlimit="10"/>
<path d="M86.8681 24.7741L68.4152 43.415L63.3874 38.3311L76.5271 25.0629L76.8754 24.7111L76.5271 24.3593L63.3874 11.0857L68.4151 6.0069L86.9089 24.6838L86.8411 24.7523L86.8681 24.7741Z" fill="white" stroke="#EBE2E2"/>
<path d="M86.3161 21.5186L67.1187 2.1311L61.3875 7.92063L74.8754 21.5459L61.3875 35.1658L67.1187 40.9607L86.3161 21.5678L86.2891 21.5459L86.3161 21.5186Z" fill="#01FFA9" stroke="black" stroke-width="2" stroke-miterlimit="10"/>
<path d="M67.0722 24.7741L48.6194 43.415L43.5915 38.3311L56.7312 25.0629L57.0796 24.7111L56.7313 24.3593L43.5916 11.0857L48.6193 6.0069L67.113 24.6838L67.0452 24.7523L67.0722 24.7741Z" fill="white" stroke="#EBE2E2"/>
<path d="M66.5203 21.5186L47.3228 2.1311L41.5917 7.92063L55.0796 21.5459L41.5917 35.1658L47.3228 40.9607L66.5203 21.5678L66.4932 21.5459L66.5203 21.5186Z" fill="#01FFA9" stroke="black" stroke-width="2" stroke-miterlimit="10"/>
<path d="M47.3362 24.7083L28.8235 43.4149L23.7956 38.331L36.93 25.0628L37.2782 24.7111L36.9301 24.3593L23.7957 11.0858L28.8233 6.0069L47.3362 24.7083Z" fill="white" stroke="#EBE2E2"/>
<path d="M46.719 21.5186L27.527 2.1311L21.7958 7.92063L35.2783 21.5459L21.7958 35.1658L27.527 40.9607L46.719 21.5678L46.6974 21.5459L46.719 21.5186Z" fill="#01FFA9" stroke="black" stroke-width="2" stroke-miterlimit="10"/>
<path d="M27.5404 24.7083L9.02764 43.4149L3.99976 38.331L17.1342 25.0628L17.4824 24.7111L17.1343 24.3593L3.99986 11.0858L9.02752 6.0069L27.5404 24.7083Z" fill="white" stroke="#EBE2E2"/>
<path d="M26.9232 21.5186L7.73114 2.1311L2 7.92063L15.4825 21.5459L2 35.1658L7.73114 40.9607L26.9232 21.5678L26.9016 21.5459L26.9232 21.5186Z" fill="#01FFA9" stroke="black" stroke-width="2" stroke-miterlimit="10"/>
</svg>
