<svg width="186" height="199" viewBox="0 0 186 199" fill="none" xmlns="http://www.w3.org/2000/svg">
<path d="M42.421 106.389L38.9584 104.275C38.7458 104.153 38.5636 104.153 38.4193 104.252C38.4117 104.259 38.4041 104.259 38.389 104.267L34.8884 106.351C34.8049 106.404 34.7745 106.511 34.8277 106.594L38.1384 112.398C38.1536 112.428 38.1612 112.459 38.1612 112.489V118.711C38.1612 119.297 38.518 119.981 38.9584 120.24L35.8376 118.552C35.868 118.567 35.8908 118.59 35.9059 118.62L39.2014 124.401C39.247 124.484 39.3609 124.515 39.4444 124.469L42.9677 122.385C43.1196 122.279 43.2183 122.066 43.2183 121.761V107.933C43.2183 107.332 42.8614 106.648 42.421 106.389Z" fill="white"/>
<path d="M39.3609 124.933C39.3077 124.933 39.2546 124.926 39.1938 124.91C39.0268 124.865 38.8901 124.758 38.8066 124.614L35.5187 118.833C35.5415 118.879 35.5794 118.909 35.6174 118.932L36.0578 118.141L37.7435 119.054C37.7207 118.939 37.7131 118.818 37.7131 118.704V112.558L34.4404 106.815C34.2734 106.518 34.3721 106.13 34.6682 105.956L38.1687 103.871C38.4725 103.674 38.8445 103.674 39.1938 103.879L42.6564 106.001C43.2411 106.343 43.6739 107.165 43.6739 107.918V121.746C43.6739 122.195 43.5144 122.545 43.2259 122.743L39.6798 124.842C39.5811 124.903 39.4748 124.933 39.3609 124.933ZM37.0677 119.715L39.4672 123.922L42.7475 121.982C42.7399 121.982 42.7779 121.906 42.7779 121.746V107.918C42.7779 107.462 42.4741 106.944 42.2084 106.785L42.2008 106.777L38.7382 104.662C38.7003 104.64 38.6699 104.632 38.6623 104.632L35.3744 106.594L38.5484 112.162C38.6016 112.261 38.6319 112.368 38.6319 112.474V118.696C38.6319 119.152 38.9357 119.67 39.2014 119.829L38.761 120.62L37.0677 119.715Z" fill="black"/>
<path d="M35.7085 117.334C35.7085 117.334 36.9842 109.812 38.2447 116.209L35.83 118.536C35.8604 118.567 35.8832 118.589 35.9135 118.62L39.1711 124.34C39.2318 124.454 39.3761 124.492 39.49 124.424L42.9601 122.37C43.112 122.263 43.2107 122.05 43.2107 121.746V108.017C43.2107 107.979 43.1651 107.948 43.1272 107.971L39.4976 110.131C39.4976 110.131 39.4976 110.131 39.49 110.131L35.7085 117.334Z" fill="black"/>
<path d="M39.3837 124.91C39.3229 124.91 39.2622 124.903 39.209 124.887C39.0344 124.842 38.8825 124.728 38.7914 124.568L35.4579 118.795L34.7973 120.057L35.2757 117.258C35.7313 114.558 36.3615 113.189 37.1512 113.174C37.2348 113.174 37.3107 113.181 37.379 113.204L39.1559 109.827L39.2394 109.766L43.1424 107.439L43.4233 107.568C43.5828 107.659 43.6815 107.827 43.6815 108.009V121.738C43.6815 122.187 43.522 122.537 43.2335 122.735L39.733 124.811C39.6191 124.88 39.5052 124.91 39.3837 124.91ZM36.4223 118.597L39.4596 123.921L42.7399 121.982C42.7323 121.982 42.7703 121.906 42.7703 121.746V108.716L39.8469 110.458L38.0397 113.896C38.2826 114.376 38.4953 115.098 38.6927 116.125L38.7382 116.368L36.4223 118.597ZM37.4777 114.946L36.0046 117.738L37.7511 116.049C37.66 115.585 37.5613 115.22 37.4777 114.946Z" fill="black"/>
<path d="M38.7079 124.56L35.2453 122.446C34.8049 122.195 34.448 121.51 34.448 120.917V107.089C34.448 106.503 34.8049 106.229 35.2453 106.488L38.7079 108.602C39.1483 108.853 39.5051 109.538 39.5051 110.131V123.96C39.5051 124.545 39.1483 124.811 38.7079 124.56Z" fill="#05FFA8"/>
<path d="M39.0268 125.108C38.8521 125.108 38.6623 125.055 38.4801 124.948L38.4725 124.941L35.0175 122.826C34.4404 122.492 34 121.67 34 120.909V107.081C34 106.602 34.1822 106.229 34.5012 106.039C34.7897 105.872 35.1466 105.887 35.4731 106.085L38.9432 108.207C39.5203 108.542 39.9607 109.363 39.9607 110.124V123.952C39.9607 124.431 39.7785 124.804 39.4596 124.994C39.3229 125.07 39.1786 125.108 39.0268 125.108ZM38.9356 124.165C38.9812 124.195 39.0116 124.195 39.0192 124.195C39.004 124.195 39.0495 124.112 39.0495 123.952V110.124C39.0495 109.667 38.7458 109.142 38.4801 108.99L35.0099 106.868C34.9719 106.845 34.9416 106.838 34.9264 106.838C34.9416 106.838 34.896 106.914 34.896 107.081V120.909C34.896 121.366 35.1997 121.891 35.4655 122.043L38.9356 124.165Z" fill="black"/>
<path d="M41.1702 105.301L37.5996 107.53L38.0774 108.298L41.6481 106.07L41.1702 105.301Z" fill="black"/>
<path d="M42.8013 117.742L39.6593 119.637L40.0197 120.236L43.1617 118.341L42.8013 117.742Z" fill="#05FFA8"/>
<path d="M150.755 138.982L136.441 130.707C136.244 130.592 136.069 130.592 135.933 130.668C135.91 130.676 135.895 130.691 135.872 130.707L132.189 132.89C132.174 132.897 132.166 132.92 132.181 132.935L135.644 138.746C135.644 138.754 135.652 138.754 135.652 138.762V136.906C135.652 137.491 136.008 138.176 136.449 138.435L143.822 142.702C143.83 142.702 143.83 142.709 143.837 142.717L147.55 148.946C147.558 148.962 147.581 148.969 147.596 148.954L151.324 146.741C151.476 146.634 151.567 146.421 151.567 146.117V140.526C151.552 139.925 151.195 139.241 150.755 138.982Z" fill="white"/>
<path d="M147.421 149.562L147.148 149.167L143.495 143.036L136.214 138.83C136.176 138.807 136.138 138.784 136.092 138.754V138.762H135.188H135.644L135.249 138.975L131.688 133.004L131.779 132.616L131.954 132.502L135.69 130.281C135.986 130.121 136.335 130.136 136.654 130.319L150.967 138.594C151.552 138.929 151.992 139.758 151.992 140.511V146.102C151.992 146.543 151.841 146.893 151.56 147.098L147.421 149.562ZM135.188 136.906H136.092C136.092 137.362 136.396 137.887 136.662 138.039L144.141 142.367L144.217 142.489L147.71 148.345L151.074 146.345C151.058 146.353 151.096 146.277 151.096 146.109V140.519C151.096 140.062 150.793 139.537 150.527 139.385L136.214 131.11C136.168 131.087 136.138 131.079 136.13 131.079L132.781 133.072L135.188 137.111V136.906Z" fill="black"/>
<path d="M143.139 140.648C143.131 140.655 143.131 140.663 143.131 140.671L143.23 142.359L143.807 142.694C143.814 142.694 143.814 142.702 143.822 142.709L147.512 148.901C147.55 148.908 147.573 148.916 147.611 148.923L151.301 146.725C151.453 146.619 151.544 146.406 151.544 146.102V140.579C151.544 140.549 151.514 140.526 151.484 140.549L147.839 142.717C147.831 142.717 147.831 142.724 147.824 142.732L143.139 140.648Z" fill="black"/>
<path d="M147.679 149.41L147.216 149.296L143.488 143.036L142.797 142.633L142.675 140.564L142.956 140.077L147.793 142.222L151.484 140.024L151.977 140.283L152 140.579V146.101C152 146.543 151.848 146.893 151.567 147.098L147.679 149.41ZM143.67 142.085L144.141 142.359L144.217 142.481L147.71 148.338L151.074 146.337C151.058 146.345 151.096 146.269 151.096 146.101V141.31L148.165 143.051L148.014 143.31L143.632 141.363L143.67 142.085Z" fill="black"/>
<path d="M147.034 148.916L132.721 140.64C132.28 140.389 131.923 139.705 131.923 139.111V133.521C131.923 132.935 132.28 132.661 132.721 132.92L147.034 141.195C147.474 141.446 147.831 142.131 147.831 142.724V148.315C147.831 148.901 147.474 149.174 147.034 148.916Z" fill="#05FFA8"/>
<path d="M147.353 149.464C147.171 149.464 146.988 149.41 146.806 149.304L132.493 141.028C131.908 140.693 131.468 139.864 131.468 139.111V133.521C131.468 133.042 131.65 132.669 131.969 132.479C132.257 132.311 132.614 132.327 132.941 132.524L147.254 140.8C147.839 141.135 148.279 141.964 148.279 142.717V148.307C148.279 148.787 148.097 149.159 147.778 149.349C147.657 149.425 147.505 149.464 147.353 149.464ZM147.262 148.52C147.315 148.551 147.345 148.558 147.353 148.558C147.338 148.558 147.383 148.475 147.383 148.315V142.724C147.383 142.268 147.08 141.743 146.814 141.591L132.5 133.315C132.447 133.285 132.417 133.277 132.409 133.277C132.424 133.277 132.379 133.353 132.379 133.521V139.111C132.379 139.568 132.683 140.085 132.948 140.245L147.262 148.52Z" fill="black"/>
<path d="M138.194 131.703L134.623 133.931L135.101 134.7L138.672 132.471L138.194 131.703Z" fill="black"/>
<path d="M151.133 143.788L147.991 145.683L148.351 146.282L151.493 144.387L151.133 143.788Z" fill="#05FFA8"/>
<path d="M150.626 118.825L136.312 110.55C136.115 110.436 135.94 110.436 135.803 110.512C135.781 110.519 135.765 110.535 135.743 110.55L132.06 112.733C132.045 112.74 132.037 112.763 132.052 112.778L135.515 118.59C135.515 118.597 135.522 118.597 135.522 118.605V126.531C135.522 127.116 135.879 127.801 136.32 128.059L143.693 132.327C143.7 132.327 143.7 132.334 143.708 132.342L147.421 138.571C147.429 138.587 147.452 138.594 147.467 138.579L151.195 136.366C151.347 136.259 151.438 136.046 151.438 135.742V120.377C151.423 119.761 151.066 119.076 150.626 118.825Z" fill="white"/>
<path d="M147.3 139.18L147.026 138.784L143.374 132.654L136.092 128.447C135.507 128.113 135.067 127.284 135.067 126.531V118.727L131.566 112.855L131.658 112.467L131.832 112.353L135.576 110.131C135.872 109.972 136.221 109.987 136.54 110.17L150.853 118.445C151.438 118.78 151.879 119.609 151.879 120.362V135.727C151.879 136.168 151.727 136.518 151.446 136.723L147.3 139.18ZM132.66 112.9L135.971 118.453L135.978 118.597V126.523C135.978 126.979 136.282 127.504 136.548 127.656L144.027 131.984L144.103 132.106L147.596 137.963L150.96 135.962C150.945 135.978 150.982 135.894 150.982 135.727V120.362C150.982 119.906 150.679 119.388 150.413 119.229L136.1 110.953C136.054 110.93 136.024 110.923 136.016 110.923L132.66 112.9Z" fill="black"/>
<path d="M143.017 130.265C143.01 130.273 143.01 130.281 143.01 130.288L143.108 131.977L143.685 132.311C143.693 132.311 143.693 132.319 143.701 132.327L147.391 138.518C147.429 138.526 147.452 138.533 147.49 138.541L151.18 136.343C151.332 136.236 151.423 136.023 151.423 135.719V120.423C151.423 120.392 151.393 120.37 151.362 120.392L147.717 122.56C147.71 122.56 147.71 122.568 147.702 122.575L143.017 130.265Z" fill="black"/>
<path d="M147.558 139.02L147.193 138.929L146.996 138.746L143.359 132.646L142.668 132.243L142.546 130.174L142.63 130.03L147.376 122.241L147.49 122.172L151.362 119.868L151.856 120.126L151.879 120.423V135.719C151.879 136.16 151.727 136.51 151.446 136.715L147.558 139.02ZM143.549 131.703L144.019 131.977L144.095 132.098L147.588 137.955L150.952 135.955C150.937 135.97 150.975 135.886 150.975 135.719V121.153L148.036 122.895L143.473 130.395L143.549 131.703Z" fill="black"/>
<path d="M146.913 138.533L132.599 130.258C132.159 130.007 131.802 129.322 131.802 128.729V113.364C131.802 112.779 132.159 112.505 132.599 112.763L146.913 121.039C147.353 121.29 147.71 121.975 147.71 122.568V137.933C147.71 138.518 147.353 138.784 146.913 138.533Z" fill="#05FFA8"/>
<path d="M147.231 139.081C147.049 139.081 146.867 139.028 146.685 138.921L132.371 130.646C131.787 130.311 131.346 129.482 131.346 128.729V113.364C131.346 112.885 131.528 112.512 131.847 112.322C132.136 112.155 132.493 112.17 132.819 112.368L147.14 120.643C147.725 120.978 148.165 121.807 148.165 122.56V137.925C148.165 138.404 147.983 138.777 147.664 138.967C147.528 139.043 147.383 139.081 147.231 139.081ZM147.14 138.138C147.193 138.168 147.231 138.176 147.231 138.176C147.216 138.176 147.262 138.092 147.262 137.932V122.568C147.262 122.111 146.958 121.587 146.692 121.434L132.379 113.159C132.326 113.128 132.295 113.121 132.288 113.121C132.303 113.121 132.257 113.197 132.257 113.364V128.729C132.257 129.185 132.561 129.702 132.827 129.862L147.14 138.138Z" fill="black"/>
<path d="M138.056 111.537L134.486 113.765L134.964 114.534L138.534 112.305L138.056 111.537Z" fill="black"/>
<path d="M151.002 133.387L147.86 135.282L148.221 135.881L151.363 133.986L151.002 133.387Z" fill="#05FFA8"/>
<path d="M143.617 132.54L135.895 128.075C135.371 127.771 134.945 126.957 134.945 126.249V119.738C134.945 119.039 135.371 118.711 135.895 119.016L143.617 123.481C144.141 123.785 144.566 124.599 144.566 125.306V131.817C144.574 132.525 144.149 132.844 143.617 132.54Z" fill="white"/>
<path d="M143.997 133.11C143.799 133.11 143.594 133.049 143.389 132.935L135.667 128.47C135.006 128.09 134.49 127.116 134.49 126.257V119.746C134.49 119.213 134.695 118.787 135.044 118.582C135.356 118.4 135.75 118.422 136.122 118.635L143.845 123.1C144.505 123.48 145.022 124.454 145.022 125.314V131.825C145.022 132.357 144.817 132.783 144.467 132.988C144.323 133.064 144.164 133.11 143.997 133.11ZM135.515 119.358C135.507 119.358 135.5 119.358 135.492 119.358C135.462 119.381 135.386 119.495 135.386 119.738V126.249C135.386 126.789 135.728 127.459 136.115 127.679L143.837 132.144C143.936 132.197 143.997 132.205 144.004 132.197C144.035 132.174 144.111 132.06 144.111 131.817V125.306C144.111 124.766 143.769 124.097 143.382 123.876L135.659 119.411C135.598 119.373 135.545 119.358 135.515 119.358Z" fill="black"/>
<path d="M139.965 127.04C139.631 127.04 139.281 126.812 139.046 126.417L134.786 119.274L135.561 118.81L139.828 125.953C139.881 126.036 139.927 126.082 139.965 126.112L144.141 123.945L144.559 124.751L140.299 126.957C140.185 127.01 140.079 127.04 139.965 127.04Z" fill="black"/>
<path d="M75.7328 155.822L75.2316 155.533L63.0672 162.562L63.5683 162.851L75.7328 155.822Z" fill="black"/>
<path d="M77.0313 156.575L76.5225 156.286L64.358 163.315L64.8668 163.604L77.0313 156.575Z" fill="black"/>
<path d="M78.3525 157.344L77.8438 157.047L65.6793 164.075L66.188 164.364L78.3525 157.344Z" fill="black"/>
<path d="M79.6206 158.074L79.1194 157.785L66.955 164.813L67.4637 165.102L79.6206 158.074Z" fill="black"/>
<path d="M80.9418 158.842L80.4407 158.545L68.2762 165.573L68.7774 165.863L80.9418 158.842Z" fill="black"/>
<path d="M82.2403 159.587L81.7391 159.298L69.5746 166.327L70.0758 166.616L82.2403 159.587Z" fill="black"/>
<path d="M83.5615 160.356L83.0603 160.059L70.8959 167.087L71.397 167.376L83.5615 160.356Z" fill="black"/>
<path d="M84.86 161.101L84.3588 160.812L72.1943 167.84L72.6955 168.129L84.86 161.101Z" fill="black"/>
<path d="M86.1888 161.869L85.6877 161.58L73.5232 168.609L74.0243 168.898L86.1888 161.869Z" fill="black"/>
<path d="M87.4872 162.622L86.9861 162.333L74.8216 169.361L75.3228 169.651L87.4872 162.622Z" fill="black"/>
<path d="M88.8085 163.391L88.2997 163.094L76.1353 170.122L76.644 170.411L88.8085 163.391Z" fill="black"/>
<path d="M90.0842 164.121L89.5754 163.832L77.4109 170.86L77.9197 171.149L90.0842 164.121Z" fill="black"/>
<path d="M91.3978 164.889L90.8967 164.592L78.7322 171.62L79.2333 171.91L91.3978 164.889Z" fill="black"/>
<path d="M92.6963 165.634L92.1951 165.345L80.0306 172.374L80.5318 172.663L92.6963 165.634Z" fill="black"/>
<path d="M94.0175 166.403L93.5163 166.106L81.3519 173.134L81.853 173.431L94.0175 166.403Z" fill="black"/>
<path d="M95.316 167.148L94.8148 166.859L82.6503 173.887L83.1515 174.176L95.316 167.148Z" fill="black"/>
<path d="M60.8727 148.718L51.2976 154.248C51.0318 154.506 50.9103 154.78 50.9179 155.047L62.2471 148.505C61.7839 148.497 61.3055 148.566 60.8727 148.718Z" fill="black"/>
<path d="M63.6443 148.832C63.5759 148.794 63.5 148.764 63.4241 148.733L51.3052 155.731C51.3583 155.777 51.4115 155.822 51.4798 155.86L51.7835 156.035L63.948 149.007L63.6443 148.832Z" fill="black"/>
<path d="M65.2844 149.783L64.7833 149.494L52.6188 156.522L53.1199 156.811L65.2844 149.783Z" fill="black"/>
<path d="M66.5829 150.536L66.0817 150.239L53.9172 157.267L54.4184 157.564L66.5829 150.536Z" fill="black"/>
<path d="M67.9041 151.297L67.403 151.008L55.2385 158.036L55.7396 158.325L67.9041 151.297Z" fill="black"/>
<path d="M69.1798 152.034L68.671 151.745L56.5065 158.766L57.0153 159.062L69.1798 152.034Z" fill="black"/>
<path d="M70.4934 152.795L69.9923 152.506L57.8278 159.534L58.329 159.823L70.4934 152.795Z" fill="black"/>
<path d="M71.7919 153.548L71.2907 153.259L59.1262 160.28L59.6274 160.576L71.7919 153.548Z" fill="black"/>
<path d="M73.1131 154.309L72.6119 154.02L60.4475 161.048L60.9486 161.337L73.1131 154.309Z" fill="black"/>
<path d="M73.9104 154.773L61.7459 161.793L62.2471 162.09L74.4116 155.062L73.9104 154.773Z" fill="black"/>
<path d="M114.929 178.497L114.421 178.2L102.256 185.228L102.765 185.517L114.929 178.497Z" fill="black"/>
<path d="M116.228 179.242L115.719 178.953L103.555 185.981L104.063 186.27L116.228 179.242Z" fill="black"/>
<path d="M117.542 180.01L117.04 179.714L104.876 186.742L105.385 187.031L117.542 180.01Z" fill="black"/>
<path d="M118.817 180.74L118.316 180.451L106.152 187.48L106.653 187.769L118.817 180.74Z" fill="black"/>
<path d="M120.138 181.509L119.637 181.212L107.473 188.24L107.974 188.537L120.138 181.509Z" fill="black"/>
<path d="M121.437 182.262L120.936 181.965L108.771 188.993L109.272 189.282L121.437 182.262Z" fill="black"/>
<path d="M122.758 183.022L122.249 182.733L110.085 189.754L110.594 190.051L122.758 183.022Z" fill="black"/>
<path d="M124.057 183.775L123.548 183.479L111.383 190.507L111.892 190.796L124.057 183.775Z" fill="black"/>
<path d="M125.385 184.544L124.877 184.247L112.712 191.275L113.221 191.564L125.385 184.544Z" fill="black"/>
<path d="M126.684 185.289L126.175 185L114.011 192.028L114.519 192.317L126.684 185.289Z" fill="black"/>
<path d="M128.005 186.057L127.496 185.761L115.332 192.789L115.841 193.078L128.005 186.057Z" fill="black"/>
<path d="M129.273 186.795L128.772 186.498L116.608 193.527L117.109 193.816L129.273 186.795Z" fill="black"/>
<path d="M130.594 187.556L130.093 187.267L117.929 194.287L118.43 194.584L130.594 187.556Z" fill="black"/>
<path d="M131.893 188.309L131.392 188.012L119.227 195.04L119.728 195.329L131.893 188.309Z" fill="black"/>
<path d="M133.199 189.062L132.713 188.78L120.549 195.809L121.042 196.098C121.042 196.098 121.05 196.098 121.05 196.105L133.214 189.077C133.207 189.069 133.199 189.062 133.199 189.062Z" fill="black"/>
<path d="M133.738 189.686L122.105 196.41C122.447 196.448 122.804 196.44 123.161 196.387L133.685 190.309C133.784 190.089 133.799 189.883 133.738 189.686Z" fill="black"/>
<path d="M96.6448 167.916L96.136 167.627L83.9716 174.656L84.4803 174.945L96.6448 167.916Z" fill="black"/>
<path d="M97.9129 168.654L97.4117 168.365L85.2472 175.386L85.7484 175.682L97.9129 168.654Z" fill="black"/>
<path d="M99.2341 169.415L98.733 169.126L86.5685 176.154L87.0696 176.443L99.2341 169.415Z" fill="black"/>
<path d="M100.533 170.168L100.031 169.879L87.8669 176.907L88.3681 177.196L100.533 170.168Z" fill="black"/>
<path d="M101.854 170.928L101.345 170.639L89.1806 177.668L89.6893 177.957L101.854 170.928Z" fill="black"/>
<path d="M103.152 171.681L102.644 171.392L90.479 178.421L90.9878 178.71L103.152 171.681Z" fill="black"/>
<path d="M104.481 172.45L103.972 172.161L91.8079 179.189L92.3166 179.478L104.481 172.45Z" fill="black"/>
<path d="M105.78 173.203L105.271 172.914L93.1063 179.934L93.6151 180.231L105.78 173.203Z" fill="black"/>
<path d="M107.101 173.963L106.592 173.674L94.4275 180.702L94.9363 180.991L107.101 173.963Z" fill="black"/>
<path d="M108.369 174.701L107.868 174.412L95.7032 181.44L96.2044 181.729L108.369 174.701Z" fill="black"/>
<path d="M109.69 175.462L109.189 175.173L97.0244 182.201L97.5256 182.49L109.69 175.462Z" fill="black"/>
<path d="M110.989 176.215L110.487 175.926L98.3229 182.954L98.8241 183.243L110.989 176.215Z" fill="black"/>
<path d="M112.31 176.983L111.809 176.686L99.6441 183.714L100.145 184.004L112.31 176.983Z" fill="black"/>
<path d="M113.107 177.439L100.943 184.468L101.444 184.757L113.608 177.728L113.107 177.439Z" fill="black"/>
<path d="M126.221 185.281C126.631 184.452 126.866 183.38 126.866 182.102V76.5953C126.866 72.2749 124.246 67.2548 121.012 65.3836L56.9166 28.6909C55.5498 27.8999 54.2969 27.8086 53.3022 28.2802H53.2946C51.5557 28.8963 50.0143 30.3871 50.0143 30.3871L51.1153 32.0757H51.1229C51.0849 32.4104 51.0622 32.7603 51.0622 33.133V138.632C51.0622 142.953 53.6819 147.973 56.9166 149.844L121.012 186.544L122.06 188.598C122.06 188.598 124.657 188.111 126.114 185.525C126.122 185.51 126.13 185.494 126.137 185.487C126.168 185.434 126.198 185.373 126.221 185.312C126.213 185.297 126.221 185.289 126.221 185.281Z" fill="black"/>
<path d="M121.817 189.077L120.685 186.848L56.704 150.209C53.3553 148.269 50.6293 143.074 50.6293 138.617V33.1254C50.6293 32.8287 50.6445 32.5245 50.6749 32.1898L49.4524 30.3186L49.7106 30.0676C49.7789 30.0068 51.3431 28.5007 53.1503 27.8618L53.1807 27.8542C54.3349 27.337 55.732 27.5043 57.1368 28.3182L121.232 65.0185C124.581 66.9581 127.307 72.1532 127.307 76.6105V182.11C127.307 183.418 127.079 184.551 126.623 185.479L126.585 185.555C126.562 185.601 126.54 185.647 126.517 185.692C124.953 188.476 122.257 189.009 122.143 189.031L121.817 189.077ZM51.6241 31.4748L51.5633 32.1137C51.5254 32.4864 51.5026 32.8059 51.5026 33.1254V138.625C51.5026 142.8 54.0311 147.653 57.1444 149.456L121.353 186.225L122.295 188.081C122.986 187.86 124.687 187.168 125.735 185.304L125.841 185.091C126.236 184.285 126.441 183.281 126.441 182.102V76.5953C126.441 72.4194 123.912 67.5666 120.799 65.7639L56.6964 29.0712C55.5042 28.379 54.388 28.2421 53.4844 28.6757L53.2718 28.7746L53.249 28.7593C52.1024 29.2081 51.0546 30.0448 50.5838 30.4555L51.3051 31.5661L51.6241 31.4748Z" fill="black"/>
<path d="M118.445 188.164L54.3501 151.464C51.1153 149.593 48.4956 144.573 48.4956 140.252V34.7531C48.4956 30.4328 51.1153 28.4475 54.3501 30.3187L118.445 67.019C121.68 68.8901 124.3 73.9103 124.3 78.2307V183.73C124.307 188.05 121.68 190.035 118.445 188.164Z" fill="white"/>
<path d="M120.776 189.305C119.971 189.305 119.106 189.047 118.233 188.545L54.1375 151.844C50.7888 149.905 48.0628 144.71 48.0628 140.252V34.7531C48.0628 32.3191 48.8829 30.4556 50.3028 29.6265C51.5026 28.9267 53.0212 29.0408 54.5703 29.9384L118.665 66.6387C122.014 68.5783 124.74 73.7734 124.74 78.2307V183.73C124.74 186.164 123.92 188.027 122.5 188.856C121.976 189.153 121.391 189.305 120.776 189.305ZM52.0265 30.0524C51.5557 30.0524 51.1229 30.1665 50.7433 30.3871C49.5967 31.0489 48.936 32.6386 48.936 34.7531V140.252C48.936 144.428 51.4646 149.289 54.5779 151.084L118.673 187.784C119.941 188.514 121.148 188.628 122.067 188.096C123.214 187.434 123.874 185.844 123.874 183.73V78.2307C123.874 74.0548 121.346 69.202 118.24 67.3993L54.1375 30.699C53.3933 30.2654 52.6795 30.0524 52.0265 30.0524Z" fill="black"/>
<path d="M116.615 68.487L53.7046 32.4713C52.0797 31.5281 50.7432 32.3039 50.7432 34.1827V140.564C50.7432 144.025 53.1883 148.269 56.18 149.996L119.091 186.012C120.716 186.955 122.052 186.179 122.052 184.3V77.9188C122.052 74.458 119.607 70.2137 116.615 68.487Z" fill="white"/>
<path d="M120.412 186.856C119.933 186.856 119.41 186.704 118.878 186.392L55.9674 150.376C52.8466 148.574 50.3104 144.169 50.3104 140.564V34.1826C50.3104 33.1101 50.6977 32.2963 51.3963 31.8855C52.0948 31.4824 52.9985 31.5509 53.9248 32.0909L116.835 68.1067C119.956 69.9093 122.492 74.3134 122.492 77.9188V184.3C122.492 185.373 122.105 186.187 121.407 186.597C121.103 186.765 120.769 186.856 120.412 186.856ZM52.391 32.5016C52.186 32.5016 51.9961 32.5473 51.8291 32.6462C51.4114 32.8896 51.1761 33.4372 51.1761 34.1826V140.564C51.1761 143.896 53.5148 147.957 56.3927 149.623L119.303 185.639C119.949 186.012 120.533 186.088 120.959 185.844C121.376 185.601 121.612 185.053 121.612 184.308V77.9188C121.612 74.5872 119.273 70.5255 116.395 68.8673L53.492 32.8515C53.0896 32.6157 52.7175 32.5016 52.391 32.5016Z" fill="black"/>
<path d="M119.804 185.532L56.8938 149.517C53.9021 147.79 51.457 143.538 51.457 140.085V33.7034C51.457 33.0036 51.495 32.745 51.8063 32.3799C51.0698 32.5776 50.7433 33.0188 50.7433 34.1445V140.526C50.7433 143.987 53.1883 148.231 56.1801 149.958L119.091 185.974C120.116 186.567 120.716 186.361 121.247 185.753C120.761 185.882 120.457 185.905 119.804 185.532Z" fill="black"/>
<path d="M120.169 186.765C119.774 186.765 119.349 186.628 118.87 186.354L55.9599 150.338C52.839 148.535 50.3028 144.131 50.3028 140.526V34.1446C50.3028 32.8743 50.7205 32.2202 51.6848 31.9616L53.082 31.5812L52.1252 32.6689C51.9202 32.9047 51.8823 33.0036 51.8823 33.7034V140.085C51.8823 143.416 54.221 147.478 57.0989 149.144L120.009 185.16C120.549 185.472 120.731 185.441 121.118 185.335L122.515 184.954L121.558 186.042C121.156 186.521 120.693 186.765 120.169 186.765Z" fill="black"/>
<path d="M123.1 72.1152L122.857 71.674L125.135 70.3885L125.385 70.8221L123.1 72.1152Z" fill="#05FFA8"/>
<path d="M54.2438 30.2502L53.8717 29.9079C53.9097 29.8623 54.9044 28.7974 56.4307 28.4399L56.5446 28.9343C55.1778 29.2461 54.2514 30.235 54.2438 30.2502Z" fill="#05FFA8"/>
<path d="M55.4587 30.9423L55.0866 30.6C55.1246 30.5544 56.1193 29.4895 57.6456 29.132L57.7595 29.6264C56.3851 29.9459 55.4663 30.9347 55.4587 30.9423Z" fill="#05FFA8"/>
<path d="M126.319 73.5369L123.973 74.7052L124.196 75.1547L126.542 73.9864L126.319 73.5369Z" fill="#05FFA8"/>
<path d="M124.626 179.934L124.391 179.485C124.406 179.478 125.879 178.702 126.692 177.941L127.033 178.314C126.175 179.12 124.687 179.904 124.626 179.934Z" fill="#05FFA8"/>
<path d="M124.626 183.699L124.391 183.25C124.406 183.243 125.879 182.467 126.692 181.706L127.033 182.079C126.175 182.885 124.687 183.661 124.626 183.699Z" fill="#05FFA8"/>
<path d="M124.626 185.228L124.391 184.779C124.406 184.772 125.879 183.996 126.692 183.243L127.033 183.616C126.175 184.414 124.687 185.198 124.626 185.228Z" fill="#05FFA8"/>
<path d="M125.644 111.668L125.545 111.721C125.188 111.927 124.892 111.706 124.892 111.227V105.811C124.892 105.332 125.18 104.769 125.545 104.564L125.644 104.511C126.001 104.305 126.297 104.526 126.297 105.005V110.421C126.289 110.907 126.001 111.463 125.644 111.668Z" fill="black"/>
<path d="M125.287 112.056C125.18 112.056 125.082 112.033 124.998 111.98C124.778 111.85 124.649 111.577 124.649 111.234V105.819C124.649 105.248 124.991 104.609 125.423 104.351L125.522 104.297C125.758 104.161 126.001 104.145 126.198 104.259C126.418 104.389 126.547 104.663 126.547 105.005V110.42C126.547 110.991 126.206 111.637 125.773 111.889L125.674 111.942C125.545 112.018 125.408 112.056 125.287 112.056ZM125.902 104.693C125.856 104.693 125.796 104.723 125.773 104.739L125.674 104.792C125.393 104.952 125.15 105.438 125.15 105.819V111.234C125.15 111.409 125.203 111.516 125.249 111.546C125.302 111.577 125.385 111.531 125.423 111.508L125.522 111.455C125.803 111.295 126.046 110.816 126.046 110.428V105.012C126.046 104.837 125.993 104.731 125.947 104.701C125.932 104.693 125.917 104.693 125.902 104.693Z" fill="#05FFA8"/>
<path d="M125.644 102.989L125.545 103.042C125.188 103.248 124.892 103.027 124.892 102.548V97.1322C124.892 96.653 125.18 96.0902 125.545 95.8848L125.644 95.8316C126.001 95.6262 126.297 95.8468 126.297 96.326V101.742C126.289 102.221 126.001 102.776 125.644 102.989Z" fill="black"/>
<path d="M125.287 103.369C125.18 103.369 125.082 103.347 124.991 103.293C124.77 103.164 124.641 102.89 124.641 102.548V97.1322C124.641 96.5618 124.983 95.9152 125.416 95.6642L125.515 95.611C125.75 95.4741 125.993 95.4665 126.19 95.5806C126.411 95.7099 126.54 95.9837 126.54 96.326V101.742C126.54 102.312 126.198 102.959 125.765 103.21L125.666 103.263C125.545 103.331 125.408 103.369 125.287 103.369ZM125.902 96.0065C125.856 96.0065 125.796 96.0369 125.773 96.0521L125.674 96.1054C125.393 96.2651 125.15 96.7519 125.15 97.1322V102.548C125.15 102.723 125.203 102.829 125.249 102.86C125.302 102.89 125.385 102.845 125.423 102.829L125.522 102.776C125.803 102.616 126.046 102.13 126.046 101.749V96.3336C126.046 96.1586 125.993 96.0521 125.947 96.0217C125.932 96.0065 125.917 96.0065 125.902 96.0065Z" fill="#05FFA8"/>
<path d="M125.644 93.0781L125.545 93.1313C125.188 93.3367 124.892 93.1161 124.892 92.6369V89.5944C124.892 89.1152 125.18 88.5523 125.545 88.347L125.644 88.2937C126.001 88.0883 126.297 88.3089 126.297 88.7881V91.8306C126.289 92.3098 126.001 92.8727 125.644 93.0781Z" fill="black"/>
<path d="M125.287 93.4661C125.18 93.4661 125.082 93.4433 124.998 93.39C124.778 93.2607 124.649 92.9869 124.649 92.6446V89.6021C124.649 89.0316 124.991 88.3851 125.423 88.1341L125.522 88.0808C125.758 87.9439 126.001 87.9363 126.198 88.0504C126.418 88.1797 126.547 88.4535 126.547 88.7958V91.8383C126.547 92.4088 126.206 93.0553 125.773 93.3063L125.674 93.3596C125.545 93.428 125.408 93.4661 125.287 93.4661ZM125.902 88.4688C125.856 88.4688 125.796 88.4992 125.773 88.5144L125.674 88.5676C125.393 88.7274 125.15 89.2142 125.15 89.5945V92.637C125.15 92.8119 125.203 92.9184 125.249 92.9488C125.302 92.9793 125.385 92.9336 125.423 92.9108L125.522 92.8576C125.803 92.6978 126.046 92.2186 126.046 91.8307V88.7882C126.046 88.6133 125.993 88.5068 125.947 88.4764C125.932 88.4687 125.917 88.4688 125.902 88.4688Z" fill="#05FFA8"/>
<path d="M125.644 90.7125L125.545 90.7658C125.188 90.9711 124.892 90.7505 124.892 90.2713V89.5944C124.892 89.1152 125.18 88.5523 125.545 88.347L125.644 88.2937C126.001 88.0883 126.297 88.3089 126.297 88.7881V89.4651C126.289 89.9443 126.001 90.4995 125.644 90.7125Z" fill="#05FFA8"/>
<path d="M125.287 91.0928C125.18 91.0928 125.082 91.07 124.991 91.0168C124.77 90.8875 124.641 90.6136 124.641 90.2713V89.5944C124.641 89.0239 124.983 88.3774 125.416 88.1264L125.515 88.0731C125.75 87.9362 125.993 87.9286 126.19 88.0427C126.411 88.172 126.54 88.4458 126.54 88.7881V89.4651C126.54 90.0356 126.198 90.6821 125.765 90.9331L125.666 90.9863C125.545 91.0548 125.408 91.0928 125.287 91.0928ZM125.902 88.4687C125.856 88.4687 125.796 88.4991 125.773 88.5143L125.674 88.5675C125.393 88.7273 125.15 89.2141 125.15 89.5944V90.2713C125.15 90.4463 125.203 90.5528 125.249 90.5832C125.302 90.6136 125.385 90.568 125.423 90.5528L125.522 90.4995C125.803 90.3398 126.046 89.8606 126.046 89.4727V88.7957C126.046 88.6208 125.993 88.5143 125.947 88.4839C125.932 88.4687 125.917 88.4687 125.902 88.4687Z" fill="#05FFA8"/>
<path d="M124.475 69.0663L122.144 70.4525L122.4 70.8842L124.731 69.498L124.475 69.0663Z" fill="#05FFA8"/>
<path d="M129.228 177.584H128.354V182.414H129.228V177.584Z" fill="black"/>
<path d="M125.644 161.771L125.545 161.824C125.188 162.029 124.892 161.809 124.892 161.329V150.711C124.892 150.232 125.18 149.669 125.545 149.464L125.644 149.41C126.001 149.205 126.297 149.426 126.297 149.905V160.523C126.289 161.002 126.001 161.558 125.644 161.771Z" fill="black"/>
<path d="M125.287 162.158C125.18 162.158 125.082 162.136 124.998 162.082C124.778 161.953 124.649 161.679 124.649 161.337V150.719C124.649 150.148 124.991 149.509 125.423 149.251L125.522 149.197C125.758 149.06 126.001 149.045 126.198 149.167C126.418 149.296 126.547 149.57 126.547 149.912V160.531C126.547 161.101 126.206 161.748 125.773 161.999L125.674 162.052C125.545 162.12 125.408 162.158 125.287 162.158ZM125.902 149.585C125.856 149.585 125.796 149.616 125.773 149.631L125.674 149.684C125.393 149.844 125.15 150.323 125.15 150.711V161.329C125.15 161.504 125.203 161.611 125.249 161.641C125.302 161.672 125.385 161.626 125.423 161.611L125.522 161.55C125.803 161.39 126.046 160.911 126.046 160.523V149.905C126.046 149.73 125.993 149.623 125.947 149.593C125.932 149.585 125.917 149.585 125.902 149.585Z" fill="#05FFA8"/>
<path d="M125.317 160.067C125.317 160.242 125.439 160.31 125.59 160.226C125.742 160.143 125.864 159.93 125.864 159.755C125.864 159.58 125.742 159.511 125.59 159.595C125.439 159.679 125.317 159.892 125.317 160.067Z" fill="#05FFA8"/>
<path d="M105.552 58.051L105.453 58.1042C105.096 58.3172 105.142 58.6823 105.559 58.9181L110.267 61.5803C110.685 61.8161 111.315 61.8389 111.672 61.6259L111.771 61.5727C112.128 61.3597 112.082 60.9946 111.664 60.7588L106.957 58.0966C106.539 57.8608 105.916 57.838 105.552 58.051Z" fill="black"/>
<path d="M111.049 62.0292C110.738 62.0292 110.411 61.9531 110.146 61.8086L105.445 59.1464C105.142 58.979 104.975 58.728 104.967 58.4694C104.967 58.2412 105.096 58.0359 105.332 57.899L105.43 57.8381C105.863 57.5795 106.592 57.6023 107.086 57.8837L111.793 60.5459C112.097 60.7133 112.264 60.9643 112.272 61.2229C112.272 61.4511 112.143 61.6565 111.907 61.801L111.809 61.8542C111.596 61.9683 111.33 62.0292 111.049 62.0292ZM105.681 58.2717L105.582 58.3325C105.544 58.3553 105.468 58.4086 105.468 58.4694C105.468 58.5227 105.537 58.6215 105.688 58.7052L110.389 61.3674C110.723 61.5576 111.262 61.5804 111.543 61.4131L111.642 61.3598C111.68 61.337 111.755 61.2838 111.755 61.2229C111.755 61.1621 111.687 61.0708 111.535 60.9871L106.827 58.3249C106.501 58.1271 105.962 58.1043 105.681 58.2717Z" fill="#05FFA8"/>
<path d="M64.229 34.3805L64.1075 34.4565C63.6519 34.7303 63.7126 35.1943 64.2441 35.491L64.4492 35.5822C64.9807 35.8865 65.7856 35.9093 66.2412 35.6431L66.3627 35.567C66.8183 35.2932 66.7575 34.8292 66.226 34.5326L66.021 34.4413C65.4894 34.1371 64.6922 34.1142 64.229 34.3805Z" fill="black"/>
<path d="M65.4439 36.0765C65.0566 36.0765 64.6466 35.9853 64.3201 35.7951L64.1379 35.719C63.7506 35.5061 63.5456 35.2094 63.538 34.9052C63.538 34.639 63.6898 34.3956 63.9708 34.2282L64.0923 34.1522C64.6238 33.8327 65.5274 33.8631 66.1349 34.2054L66.3171 34.2815C66.7044 34.4944 66.9094 34.7911 66.917 35.0953C66.917 35.3616 66.7651 35.605 66.4842 35.7723L66.3627 35.8484C66.1197 36.0081 65.7932 36.0765 65.4439 36.0765ZM65.0187 34.4488C64.7681 34.4488 64.5327 34.502 64.3581 34.6009L64.2366 34.677C64.1682 34.715 64.0543 34.7987 64.0543 34.9128C64.0543 35.0269 64.1758 35.1714 64.3732 35.2779L64.5555 35.3539C65.0339 35.6202 65.74 35.6506 66.1197 35.43L66.2412 35.3539C66.3095 35.3159 66.4234 35.2322 66.4234 35.1182C66.4234 35.0041 66.3019 34.8595 66.1045 34.753L65.9223 34.677C65.6641 34.5249 65.33 34.4488 65.0187 34.4488Z" fill="#05FFA8"/>
<path d="M66.4463 35.5061C66.3855 35.4529 66.3172 35.392 66.2261 35.3464L66.021 35.2551C65.4895 34.9509 64.6846 34.928 64.229 35.1943L64.1075 35.2703C64.0772 35.2855 64.0544 35.3084 64.024 35.3312C63.7051 35.0421 63.7203 34.6846 64.1075 34.4565L64.229 34.3804C64.6846 34.1066 65.4895 34.137 66.021 34.4412L66.2261 34.5325C66.7272 34.8139 66.8107 35.2323 66.4463 35.5061Z" fill="black"/>
<path d="M66.4306 35.8331L66.2787 35.6886C66.2255 35.6354 66.1648 35.5973 66.1041 35.5593L65.9218 35.4833C65.4434 35.217 64.7373 35.1866 64.3576 35.4072L64.0083 35.6506L63.8564 35.5061C63.6362 35.3083 63.5299 35.0649 63.5527 34.8215C63.5755 34.5857 63.7273 34.3727 63.9779 34.2282L64.0994 34.1522C64.631 33.8327 65.5346 33.8631 66.142 34.2054L66.3243 34.2815C66.6963 34.4868 66.8938 34.7607 66.9165 35.0497C66.9317 35.2931 66.8178 35.5213 66.5976 35.6886L66.4306 35.8331ZM65.0334 34.7607C65.4207 34.7607 65.8307 34.8519 66.1496 35.0421L66.3319 35.1181C66.3622 35.1334 66.385 35.1486 66.4154 35.1638C66.423 35.141 66.423 35.1258 66.423 35.1029C66.4154 34.9888 66.3015 34.8595 66.1117 34.753L65.9294 34.677C65.451 34.4108 64.7449 34.3803 64.3652 34.6009L64.2437 34.677C64.183 34.715 64.0766 34.7911 64.069 34.89C64.069 34.9204 64.0766 34.9584 64.0918 34.9964L64.1146 34.9812C64.3576 34.8291 64.6841 34.7607 65.0334 34.7607Z" fill="#05FFA8"/>
<path d="M74.5711 10.9988L80.8052 7.53792C80.8052 7.53792 81.5493 7.04352 81.9746 6.87618L88.7478 3.09585L89.0667 2.96655C90.6765 2.25156 92.4837 2.62426 94.7845 4.001C99.7505 6.98267 103.707 14.0869 103.615 19.8753C103.615 20.1491 103.6 20.4078 103.578 20.6664C104.041 20.8033 104.527 21.0087 105.02 21.3053C108.179 23.1993 110.7 27.7174 110.647 31.4064C110.624 33.1179 110.047 34.3349 109.121 34.9814L101.406 39.317L97.4877 33.3156L100.092 31.8248L79.3777 19.3733C77.654 18.3388 76.2872 15.882 76.3175 13.874C76.3251 13.4404 76.4011 13.0753 76.5226 12.7634L74.5711 11.0825C74.5407 11.0596 74.5407 11.0216 74.5711 10.9988Z" fill="white"/>
<path d="M96.5993 33.1026L98.8469 31.8095L79.0511 19.9133C77.13 18.7648 75.6493 16.1102 75.6873 13.8663C75.6873 13.5545 75.7253 13.2502 75.7936 12.9688L74.1534 11.5616L73.8877 11.303L73.9864 10.6108L80.4635 7.01306C80.547 6.95981 81.276 6.48062 81.6708 6.3361L88.5124 2.51774L88.8085 2.40365C90.5778 1.62781 92.5748 1.96248 95.1034 3.47613C100.236 6.54147 104.337 13.912 104.246 19.8981C104.246 20.0122 104.238 20.1263 104.238 20.2328C104.618 20.3773 104.982 20.5598 105.347 20.7728C108.673 22.7657 111.338 27.5424 111.277 31.4216C111.247 33.2699 110.616 34.7151 109.432 35.529L101.201 40.1536L96.5993 33.1026ZM89.2945 3.5598L82.2023 7.46943C81.9366 7.56831 81.4202 7.88778 81.1089 8.08554L80.8204 12.8623L77.2667 12.5732L77.0996 12.9916C77.0009 13.2502 76.9478 13.5469 76.9402 13.8815C76.9098 15.6538 78.1703 17.9205 79.6966 18.8256L101.337 31.8248L98.3837 33.521L101.611 38.4726L108.764 34.4565C109.553 33.9089 109.994 32.8212 110.017 31.3988C110.07 27.9151 107.685 23.6328 104.701 21.8453C104.276 21.5943 103.843 21.3965 103.403 21.2672L102.909 21.1227L102.955 20.6055C102.978 20.3621 102.985 20.1187 102.993 19.8601C103.076 14.2771 99.2493 7.40098 94.4655 4.54101C92.8861 3.59783 91.6181 3.17188 90.5018 3.25555C90.0766 3.29358 89.6818 3.39246 89.2945 3.5598Z" fill="black"/>
<path d="M74.1762 13.7446L75.3 16.2775C75.3076 16.3003 75.3 16.3231 75.2848 16.3383C74.9963 16.5589 72.7183 18.3464 72.5892 18.3464C72.4677 18.3464 70.334 16.3459 69.9771 16.0189C69.9543 15.9961 69.9619 15.9504 69.9923 15.9352L74.1078 13.7218C74.1306 13.7066 74.161 13.7142 74.1762 13.7446Z" fill="#01FFA9"/>
<path d="M72.5816 18.9778C72.2855 18.9778 72.2095 18.9702 69.5519 16.4753L69.3013 16.2167L69.4152 15.5398L73.8041 13.1742L74.0851 13.0373L74.6394 13.2351L75.8771 16.0266L76.0442 16.5438L75.6569 16.848C73.2043 18.7724 72.9005 18.9626 72.6651 18.9778C72.6348 18.9778 72.6044 18.9778 72.5816 18.9778ZM73.8497 14.5738L70.9946 16.1102C71.7008 16.7644 72.2779 17.2968 72.612 17.5782C72.9461 17.3424 73.5611 16.8709 74.5331 16.1178L73.8497 14.5738Z" fill="black"/>
<path d="M72.1868 16.1939C72.1944 16.2015 72.202 16.2091 72.2096 16.2091C72.202 15.9961 72.1868 15.7831 72.1944 15.5777C72.2551 11.4323 75.0343 9.66005 78.5196 11.3867C79.3625 6.96743 83.0832 5.46899 87.4797 8.10076C92.4457 11.0748 96.4018 18.1715 96.3183 23.9675C96.3183 24.2413 96.2955 24.4999 96.2803 24.7585C96.7435 24.8954 97.2295 25.1008 97.7231 25.3975C100.882 27.2914 103.403 31.8096 103.35 35.4986C103.297 39.1876 100.684 40.6404 97.5257 38.7541L72.0729 23.4655C70.3568 22.4386 68.9824 19.9742 69.0128 17.9737C69.0432 15.9581 70.4631 15.167 72.1868 16.1939Z" fill="#01FFA9"/>
<path d="M97.1991 39.2941L71.7464 24.0054C69.8252 22.8569 68.3446 20.1947 68.3825 17.9584C68.3977 16.7566 68.8533 15.8439 69.6582 15.3951C70.2201 15.0833 70.8731 15.03 71.5717 15.243C71.678 13.1285 72.4753 11.5235 73.8269 10.6944C75.0039 9.97185 76.4922 9.911 78.0792 10.5119C78.6107 8.65596 79.6814 7.29443 81.1621 6.63269C83.0376 5.78839 85.3915 6.12307 87.8062 7.56826C92.9317 10.6336 97.0397 18.0041 96.9485 23.9902C96.9485 24.1043 96.9485 24.2184 96.941 24.3249C97.313 24.4694 97.6851 24.652 98.0496 24.8649C101.375 26.8578 104.041 31.6345 103.98 35.5214C103.95 37.537 103.213 39.0507 101.915 39.7809C101.467 40.0395 100.965 40.1764 100.434 40.2144C99.4391 40.2753 98.3305 39.971 97.1991 39.2941ZM81.6784 7.77363C80.3724 8.35931 79.4915 9.65238 79.1346 11.5007L78.9828 12.3146L78.2386 11.9495C76.7883 11.2345 75.4595 11.166 74.4875 11.7593C73.4397 12.3983 72.855 13.7598 72.8246 15.5853C72.8246 15.7754 72.8322 15.9808 72.8398 16.1786L72.8778 17.4184L71.8451 16.7262C71.23 16.3611 70.6605 16.2775 70.2733 16.4904C69.886 16.7034 69.6582 17.2511 69.643 17.9737C69.6202 19.7459 70.8807 22.0126 72.3994 22.9177L97.8521 38.2064C99.181 39.005 100.403 39.1648 101.3 38.6627C102.196 38.1607 102.697 37.035 102.719 35.4833C102.773 31.9996 100.388 27.7173 97.4041 25.9298C96.9789 25.6712 96.5385 25.4811 96.1057 25.3517L95.6121 25.2072L95.6577 24.6976C95.6729 24.4542 95.6956 24.2108 95.6956 23.9522C95.7792 18.3692 91.9522 11.5007 87.1608 8.63314C85.6877 7.75081 84.2677 7.34768 83.0376 7.43135C82.5516 7.46938 82.096 7.58347 81.6784 7.77363Z" fill="black"/>
<path d="M103.271 20.1193L95.9732 24.2052L96.5882 25.3074L103.886 21.2214L103.271 20.1193Z" fill="black"/>
<path d="M108.974 25.8417L101.677 29.9293L102.293 31.0314L109.589 26.9438L108.974 25.8417Z" fill="black"/>
<path d="M95.777 4.33798L88.4802 8.42559L89.0954 9.52762L96.3922 5.44002L95.777 4.33798Z" fill="black"/>
<path d="M103.008 32.8972L103.35 35.2475L102.53 38.6856L109.485 34.6771L110.541 32.5245L110.32 28.8506L103.008 32.8972Z" fill="black"/>
<path d="M95.0578 17.6466L102.355 13.5544L103.608 17.8292L103.578 20.6663L96.3031 24.4314L95.0578 17.6466Z" fill="black"/>
<path d="M109.523 164.235L80.9798 147.729C80.4559 147.425 80.023 146.603 80.023 145.904V112.641C80.023 111.934 80.4483 111.615 80.9798 111.919L109.523 128.424C110.047 128.729 110.48 129.55 110.48 130.25V163.512C110.48 164.212 110.055 164.539 109.523 164.235Z" fill="white"/>
<path d="M109.333 164.6L109.318 164.592L105.081 162.143L105.499 161.421L109.743 163.877L109.333 164.6ZM110.897 162.577H110.062V157.671H110.897V162.577ZM102.955 160.911L98.7102 158.454L99.1278 157.731L103.372 160.188L102.955 160.911ZM96.5841 157.229L92.3394 154.773L92.757 154.05L97.0017 156.507L96.5841 157.229ZM110.897 155.214H110.062V150.308H110.897V155.214ZM90.2209 153.548L85.9762 151.091L86.3938 150.369L90.6385 152.825L90.2209 153.548ZM83.8577 149.867L80.7748 148.087C80.3647 147.851 80.0003 147.379 79.7877 146.824L80.5698 146.527C80.714 146.9 80.9494 147.22 81.1924 147.364L84.2753 149.144L83.8577 149.867ZM110.897 147.851H110.062V142.945H110.897V147.851ZM80.4483 144.246H79.613V139.339H80.4483V144.246ZM110.897 140.488H110.062V135.582H110.897V140.488ZM80.4483 136.883H79.613V131.977H80.4483V136.883ZM110.897 133.125H110.062V130.25C110.062 129.733 109.758 129.094 109.379 128.828L109.857 128.143C110.457 128.569 110.897 129.459 110.897 130.25V133.125ZM80.4483 129.52H79.613V124.614H80.4483V129.52ZM107.291 127.611L103.046 125.154L103.464 124.431L107.708 126.888L107.291 127.611ZM100.927 123.929L96.6828 121.472L97.1004 120.75L101.345 123.207L100.927 123.929ZM80.4483 122.157H79.613V117.251H80.4483V122.157ZM94.5566 120.248L90.312 117.791L90.7296 117.068L94.9743 119.525L94.5566 120.248ZM88.1934 116.566L83.9488 114.109L84.3664 113.387L88.6111 115.844L88.1934 116.566ZM80.4483 114.794H79.613V112.641C79.613 111.432 80.5014 111.158 81.1924 111.554L82.2479 112.162L81.8303 112.885L80.7748 112.276C80.6837 112.223 80.6305 112.215 80.6077 112.215C80.5166 112.215 80.4483 112.398 80.4483 112.634V114.794Z" fill="black"/>
<path d="M112.743 81.6002L84.1993 65.0946C83.9488 64.9501 83.721 64.9501 83.5539 65.0642C83.5463 65.0718 83.5311 65.0718 83.5235 65.0794L79.3396 67.5742C79.2409 67.6351 79.2029 67.7644 79.2637 67.8633L83.2274 74.8078C83.2426 74.8382 83.2578 74.8763 83.2578 74.9143V99.0719C83.2578 99.7792 83.683 100.593 84.2145 100.897L104.884 112.854C104.914 112.87 104.944 112.9 104.959 112.931L108.9 119.845C108.961 119.951 109.09 119.982 109.197 119.921L113.411 117.426C113.593 117.297 113.707 117.038 113.707 116.673V83.4105C113.692 82.7183 113.267 81.9045 112.743 81.6002Z" fill="white"/>
<path d="M109.075 120.499C109.014 120.499 108.946 120.491 108.885 120.476C108.688 120.423 108.521 120.301 108.422 120.118L104.519 113.28L83.926 101.369C83.2274 100.966 82.7035 99.977 82.7035 99.0718V74.9979L78.7853 68.1295C78.5803 67.772 78.7018 67.3156 79.0511 67.1026L83.235 64.6077C83.5995 64.3643 84.0399 64.372 84.4651 64.6154L113.008 81.121C113.707 81.5241 114.231 82.5129 114.231 83.4181V116.68C114.231 117.213 114.041 117.639 113.699 117.875L109.455 120.392C109.341 120.468 109.212 120.499 109.075 120.499ZM79.8864 67.8708L83.683 74.5416C83.7513 74.6633 83.7817 74.785 83.7817 74.9143V99.0718C83.7817 99.6195 84.1386 100.243 84.4651 100.426L105.134 112.383C105.256 112.451 105.347 112.55 105.415 112.664L109.189 119.289L113.115 116.962C113.099 116.962 113.145 116.871 113.145 116.68V83.4181C113.145 82.8704 112.788 82.2467 112.462 82.0642L83.9184 65.5585C83.8652 65.5281 83.8273 65.5205 83.8197 65.5205L79.8864 67.8708Z" fill="black"/>
<path d="M97.5028 95.0177C97.6167 95.5958 99.0823 102.981 100.525 110.322C100.525 110.337 100.54 110.352 100.555 110.367L104.853 112.854C104.891 112.892 104.922 112.923 104.952 112.961L108.855 119.807C108.931 119.943 109.105 119.989 109.235 119.905L113.388 117.441C113.57 117.312 113.684 117.053 113.684 116.688V83.5398C113.684 83.4866 113.631 83.4561 113.585 83.4866L109.242 86.0727C109.242 86.0727 109.235 86.0727 109.235 86.0803L97.518 94.9645C97.5104 94.9721 97.4953 94.9949 97.5028 95.0177Z" fill="black"/>
<path d="M109.098 120.476C109.029 120.476 108.954 120.468 108.885 120.445C108.673 120.392 108.49 120.248 108.384 120.058L104.519 113.273L100.069 110.702L99.9934 110.413C98.6798 103.757 97.351 97.0562 97.0396 95.4512L96.9106 94.7971L97.1991 94.5309L108.916 85.6391L113.593 82.8552L113.935 83.015C114.125 83.1214 114.238 83.3268 114.238 83.5398V116.688C114.238 117.22 114.049 117.646 113.707 117.882L109.515 120.362C109.386 120.438 109.242 120.476 109.098 120.476ZM101.019 110.002L105.43 112.679L109.197 119.289L113.122 116.962C113.107 116.962 113.153 116.871 113.153 116.68V84.3689L109.531 86.5215L98.0951 95.2002L98.1027 95.2306C98.414 96.8356 99.7201 103.407 101.019 110.002Z" fill="black"/>
<path d="M108.293 120.05L79.7497 103.544C79.2257 103.24 78.7929 102.419 78.7929 101.719V68.4565C78.7929 67.7491 79.2182 67.4296 79.7497 67.7339L108.293 84.2395C108.817 84.5438 109.25 85.3653 109.25 86.065V119.327C109.25 120.035 108.824 120.354 108.293 120.05Z" fill="#03FFA7"/>
<path d="M108.673 120.712C108.46 120.712 108.24 120.651 108.02 120.522L79.4763 104.016C78.7777 103.613 78.2538 102.624 78.2538 101.719V68.4565C78.2538 67.886 78.474 67.4373 78.8537 67.2167C79.1954 67.0189 79.6206 67.0341 80.023 67.2699L108.566 83.7756C109.265 84.1787 109.789 85.1675 109.789 86.0727V119.335C109.789 119.905 109.569 120.354 109.189 120.575C109.029 120.666 108.855 120.712 108.673 120.712ZM108.566 119.578C108.627 119.616 108.665 119.624 108.673 119.624C108.657 119.624 108.703 119.525 108.703 119.327V86.0651C108.703 85.5174 108.346 84.8937 108.02 84.7111L79.4839 68.2055C79.4232 68.1675 79.3852 68.1599 79.3776 68.1599C79.3928 68.1599 79.3472 68.2587 79.3472 68.4565V101.719C79.3472 102.266 79.7117 102.89 80.0306 103.073L108.566 119.578Z" fill="black"/>
<path d="M86.8331 66.3172L82.5599 68.9834L83.134 69.9066L87.4072 67.2404L86.8331 66.3172Z" fill="black"/>
<path d="M113.176 111.895L109.416 114.162L109.847 114.879L113.607 112.611L113.176 111.895Z" fill="#03FFA7"/>
<path d="M76.3251 75.7586L65.778 69.6584C65.6261 69.5671 65.4818 69.5747 65.3831 69.6431L60.9486 72.4118C60.8651 72.4651 60.8423 72.5716 60.8879 72.6552L65.1705 79.8584C65.1857 79.8888 65.1933 79.9192 65.1933 79.9497V81.4329C65.1933 81.8664 65.4591 82.3685 65.778 82.5586L67.2511 83.4105C67.2739 83.4257 67.2966 83.4486 67.3118 83.4714L72.0197 91.3971C72.0728 91.4808 72.1791 91.5112 72.2627 91.458L76.7123 88.6817C76.7123 88.6817 76.9022 88.4459 76.9022 88.2177V76.8843C76.9174 76.4508 76.6516 75.9488 76.3251 75.7586Z" fill="white"/>
<path d="M72.1791 92.0437C72.1184 92.0437 72.0652 92.0361 72.0045 92.0209C71.8147 91.9752 71.64 91.8535 71.5413 91.6786L66.879 83.8441L65.497 83.0454C65.0035 82.7564 64.6314 82.0642 64.6314 81.4329V80.0562L60.4095 72.9519C60.2045 72.6096 60.3184 72.1532 60.6525 71.9479L65.087 69.1792C65.3604 68.9966 65.7324 68.9966 66.0665 69.1868L76.6136 75.287C77.1072 75.5761 77.4793 76.2682 77.4793 76.8996V88.2177C77.4793 88.6285 77.2135 88.9783 77.1604 89.0392L77.0237 89.1609L72.574 91.9372C72.4525 92.0056 72.3158 92.0437 72.1791 92.0437ZM61.5713 72.6933L65.6565 79.5694C65.7248 79.6835 65.7628 79.8128 65.7628 79.9497V81.4329C65.7628 81.6991 65.945 81.9958 66.0665 82.0718L67.5396 82.9237C67.6535 82.9846 67.7447 83.0759 67.8054 83.19L72.3158 90.7734L76.3251 88.271C76.3403 88.2405 76.3479 88.2177 76.3555 88.2025V76.8996C76.3555 76.6333 76.1732 76.3367 76.0517 76.2606L65.5806 70.206L61.5713 72.6933Z" fill="black"/>
<path d="M68.9216 85.7684C68.9216 85.7684 68.9064 85.8749 68.8913 86.0575L71.9969 91.283C72.0804 91.4275 72.2703 91.4731 72.407 91.3819L76.7503 88.6664C76.7503 88.6664 76.9402 88.4306 76.9402 88.2024V77.0973C76.9402 77.006 76.8339 76.9451 76.7579 76.9984L72.369 79.7366C72.3538 79.7442 72.3386 79.7595 72.331 79.7823L68.9216 85.7684Z" fill="black"/>
<path d="M72.2551 91.998C72.1868 91.998 72.1184 91.9904 72.0501 91.9752C71.8223 91.922 71.6324 91.7775 71.511 91.5797L68.3066 86.1944L68.3673 85.5935L71.9058 79.3868L72.0653 79.2651L76.4542 76.5269C76.6668 76.3975 76.9326 76.3899 77.1452 76.5116C77.3654 76.6333 77.4945 76.8615 77.4945 77.1125V88.2177C77.4945 88.6285 77.2287 88.9783 77.1756 89.0392L77.0389 89.1609L72.6955 91.8763C72.5664 91.9524 72.4146 91.998 72.2551 91.998ZM69.4759 85.9358L72.3462 90.7582L76.3631 88.2557C76.3783 88.2253 76.3859 88.2025 76.3935 88.1873V77.9036L72.7714 80.1627L69.4759 85.9358Z" fill="black"/>
<path d="M71.7311 91.5264L61.184 85.4261C60.8575 85.236 60.5993 84.734 60.5993 84.3004V72.9822C60.5993 72.5487 60.8651 72.3509 61.184 72.5411L71.7311 78.6413C72.0576 78.8315 72.3158 79.3335 72.3158 79.767V91.0852C72.3158 91.5111 72.05 91.7089 71.7311 91.5264Z" fill="#03FFA7"/>
<path d="M71.9665 92.1578C71.7995 92.1578 71.6172 92.1121 71.4502 92.0133L60.9031 85.913C60.4095 85.624 60.0374 84.9318 60.0374 84.3005V72.9823C60.0374 72.5488 60.2121 72.1989 60.5234 72.0163C60.8044 71.849 61.1537 71.8642 61.4726 72.0468L72.0197 78.147C72.5133 78.436 72.8853 79.1282 72.8853 79.7595V91.0777C72.8853 91.5112 72.7107 91.8611 72.3994 92.0437C72.2627 92.1197 72.1108 92.1578 71.9665 92.1578ZM72.0121 91.0397L71.7311 91.5265L72.0121 91.0397ZM61.1689 73.1801L61.1613 84.3081C61.1613 84.5743 61.3435 84.871 61.465 84.947L71.7463 90.8951L71.7539 79.7671C71.7539 79.5009 71.5717 79.2043 71.4502 79.1282L61.1689 73.1801Z" fill="black"/>
<path d="M67.9398 70.6072L63.5055 73.3739L64.0996 74.3294L68.5339 71.5627L67.9398 70.6072Z" fill="black"/>
<path d="M76.3839 85.1884L72.4808 87.5424L72.9273 88.2852L76.8304 85.9312L76.3839 85.1884Z" fill="#03FFA7"/>
<path d="M74.1534 96.5009L61.7611 89.3358C61.1992 89.0163 60.7512 89.3586 60.7512 90.104V102.677C60.7512 103.423 61.2068 104.29 61.7611 104.617L63.538 105.644C63.6746 106.283 64.1606 107.941 65.7248 108.831C65.8084 108.876 65.8615 108.808 65.8235 108.701C65.6869 108.321 65.4818 107.553 65.6489 106.861L74.161 111.782C74.7229 112.101 75.1709 111.759 75.1709 111.014V98.4405C75.1633 97.6875 74.7153 96.8204 74.1534 96.5009Z" fill="#01FFA9"/>
<path d="M74.5558 112.208C74.3736 112.208 74.1914 112.155 74.0015 112.041L65.8919 107.355C65.8767 107.872 66.0362 108.367 66.1121 108.595C66.1728 108.77 66.1349 108.96 66.0058 109.067C65.8843 109.165 65.7172 109.181 65.5654 109.097C64.0087 108.199 63.4468 106.61 63.2646 105.841L61.6017 104.883C60.9486 104.503 60.4323 103.537 60.4323 102.677V90.1041C60.4323 89.6021 60.6145 89.1989 60.9335 89.0164C61.2144 88.8567 61.5637 88.8719 61.9054 89.0696L74.2977 96.2347C74.9507 96.6151 75.467 97.5811 75.467 98.4406V111.014C75.467 111.523 75.2848 111.919 74.9659 112.101C74.8444 112.17 74.7001 112.208 74.5558 112.208ZM65.4439 106.382L74.3129 111.508C74.3964 111.554 74.5558 111.63 74.6622 111.561C74.7836 111.493 74.8596 111.28 74.8596 111.006V98.433C74.8596 97.794 74.4647 97.0334 74.0015 96.7672L61.6093 89.6021C61.5257 89.5564 61.3663 89.4804 61.2524 89.5488C61.1309 89.6173 61.0549 89.8303 61.0549 90.1041V102.677C61.0549 103.316 61.4498 104.077 61.913 104.343L63.8113 105.438L63.8417 105.575C63.9556 106.115 64.3201 107.355 65.3679 108.207C65.2844 107.804 65.2313 107.279 65.3452 106.785L65.4439 106.382Z" fill="black"/>
<path d="M63.8771 94.6529L63.5696 95.1864L72.0261 100.077L72.3336 99.5437L63.8771 94.6529Z" fill="black"/>
<path d="M63.8759 96.5933L63.5683 97.1268L72.0248 102.018L72.3324 101.484L63.8759 96.5933Z" fill="black"/>
<path d="M63.8747 98.5335L63.5672 99.067L72.0237 103.958L72.3312 103.424L63.8747 98.5335Z" fill="black"/>
<path d="M63.8802 100.478L63.5726 101.011L72.0291 105.902L72.3367 105.368L63.8802 100.478Z" fill="black"/>
<path d="M74.1534 131.771L61.7611 124.606C61.1992 124.287 60.7512 124.629 60.7512 125.375V135.962C60.7512 136.708 61.2068 137.575 61.7611 137.902L69.4531 142.352C69.6354 143.264 69.4228 143.812 69.2861 144.04C69.2481 144.101 69.3013 144.238 69.3848 144.284C70.987 145.219 71.4578 144.04 71.5793 143.584L74.1534 145.075C74.7153 145.394 75.1633 145.052 75.1633 144.307V133.719C75.1633 132.958 74.7153 132.091 74.1534 131.771Z" fill="#01FFA9"/>
<path d="M74.5558 145.493C74.3736 145.493 74.1914 145.44 74.0015 145.326L71.7463 144.017C71.6096 144.322 71.3743 144.656 70.9718 144.824C70.4934 145.021 69.9087 144.93 69.2253 144.535C69.1039 144.466 69.0127 144.337 68.9748 144.192C68.9444 144.071 68.9596 143.957 69.0127 143.858C69.1039 143.706 69.2861 143.287 69.1646 142.527L61.6017 138.153C60.9486 137.773 60.4323 136.807 60.4323 135.947V125.367C60.4323 124.865 60.6145 124.462 60.9335 124.279C61.2144 124.112 61.5637 124.135 61.9054 124.332L74.2977 131.497C74.9507 131.878 75.467 132.844 75.467 133.703V144.291C75.467 144.801 75.2848 145.196 74.9659 145.379C74.8444 145.455 74.7001 145.493 74.5558 145.493ZM71.3818 143.097L74.3129 144.793C74.3964 144.839 74.5558 144.915 74.6622 144.847C74.7836 144.778 74.8596 144.565 74.8596 144.291V133.703C74.8596 133.064 74.4647 132.304 74.0015 132.038L61.6093 124.872C61.5257 124.827 61.3663 124.751 61.2524 124.819C61.1309 124.888 61.0549 125.101 61.0549 125.374V135.962C61.0549 136.601 61.4498 137.362 61.913 137.628L69.7265 142.146L69.7569 142.283C69.9391 143.188 69.7569 143.782 69.6126 144.071C70.0606 144.306 70.4479 144.383 70.7364 144.268C71.0705 144.132 71.2224 143.728 71.2831 143.5L71.3818 143.097Z" fill="black"/>
<path d="M63.8747 129.209L63.5671 129.743L72.0236 134.634L72.3311 134.1L63.8747 129.209Z" fill="black"/>
<path d="M63.88 131.153L63.5725 131.687L72.029 136.578L72.3365 136.044L63.88 131.153Z" fill="black"/>
<path d="M63.8789 133.094L63.5713 133.627L72.0278 138.518L72.3354 137.984L63.8789 133.094Z" fill="black"/>
<path d="M63.8777 135.034L63.5702 135.567L72.0267 140.458L72.3342 139.925L63.8777 135.034Z" fill="black"/>
<path d="M74.1534 115.943L61.7611 108.778C61.1992 108.458 60.7512 108.8 60.7512 109.546V110.39C60.7512 111.135 61.2068 112.003 61.7611 112.33L70.5769 117.426C70.7744 118.369 70.5542 118.924 70.4175 119.153C70.3795 119.213 70.4327 119.35 70.5162 119.396C72.1564 120.354 72.612 119.099 72.7183 118.658L74.1534 119.487C74.7153 119.807 75.1633 119.464 75.1633 118.719V117.875C75.1633 117.137 74.7153 116.27 74.1534 115.943Z" fill="#01FFA9"/>
<path d="M71.5869 120.058C71.2224 120.058 70.8123 119.928 70.3643 119.662C70.2428 119.594 70.1517 119.464 70.1138 119.32C70.0834 119.198 70.0986 119.084 70.1517 118.985C70.2428 118.833 70.4327 118.399 70.296 117.616L61.6017 112.588C60.9486 112.208 60.4323 111.242 60.4323 110.382V109.538C60.4323 109.036 60.6145 108.633 60.9335 108.45C61.2144 108.283 61.5637 108.306 61.9054 108.504L74.2977 115.669C74.9507 116.049 75.467 117.015 75.467 117.875V118.719C75.467 119.221 75.2848 119.624 74.9659 119.807C74.6849 119.974 74.3356 119.951 73.9939 119.753L72.8853 119.114C72.7486 119.426 72.5132 119.769 72.1108 119.944C71.9513 120.02 71.7767 120.058 71.5869 120.058ZM70.744 119.19C71.1996 119.426 71.5869 119.502 71.8754 119.381C72.2323 119.229 72.3766 118.772 72.4221 118.59L72.5208 118.186L74.3129 119.221C74.3964 119.267 74.5558 119.343 74.6622 119.274C74.7836 119.206 74.8596 118.993 74.8596 118.719V117.875C74.8596 117.236 74.4647 116.475 74.0015 116.209L61.6093 109.044C61.5257 108.998 61.3663 108.922 61.2524 108.99C61.1309 109.059 61.0549 109.272 61.0549 109.546V110.39C61.0549 111.029 61.4498 111.79 61.913 112.056L70.8503 117.22L70.8807 117.357C71.0705 118.293 70.8883 118.894 70.744 119.19Z" fill="black"/>
<path d="M63.8746 111.411L63.5671 111.944L72.0235 116.835L72.3311 116.302L63.8746 111.411Z" fill="black"/>
<path d="M74.1534 123.853L61.7611 116.688C61.1992 116.368 60.7512 116.711 60.7512 117.456V118.3C60.7512 119.046 61.2068 119.913 61.7611 120.24L63.7885 121.411C63.9176 122.035 64.396 123.716 65.9754 124.629C66.0589 124.675 66.1121 124.606 66.0741 124.5C65.9374 124.119 65.7248 123.336 65.8995 122.636L74.1458 127.405C74.7077 127.725 75.1557 127.382 75.1557 126.637V125.793C75.1633 125.047 74.7153 124.18 74.1534 123.853Z" fill="#01FFA9"/>
<path d="M74.5558 127.839C74.3736 127.839 74.1914 127.786 74.0015 127.672L66.1501 123.131C66.1349 123.655 66.2867 124.165 66.3703 124.386C66.431 124.568 66.393 124.751 66.264 124.857C66.1425 124.956 65.9678 124.971 65.8235 124.888C64.2517 123.982 63.6974 122.385 63.5152 121.602L61.6017 120.499C60.9486 120.118 60.4323 119.152 60.4323 118.293V117.449C60.4323 116.947 60.6145 116.544 60.9335 116.361C61.2144 116.201 61.5637 116.216 61.9054 116.414L74.2977 123.579C74.9507 123.96 75.467 124.926 75.467 125.785V126.629C75.467 127.131 75.2848 127.535 74.9659 127.717C74.8444 127.801 74.7001 127.839 74.5558 127.839ZM65.7096 122.165L74.3129 127.139C74.3964 127.185 74.5558 127.261 74.6697 127.192C74.7912 127.124 74.8672 126.911 74.8672 126.637V125.793C74.8672 125.154 74.4723 124.393 74.0091 124.127L61.6169 116.962C61.5333 116.916 61.3739 116.84 61.26 116.909C61.1385 116.977 61.0625 117.19 61.0625 117.464V118.308C61.0625 118.947 61.4574 119.708 61.9206 119.974L64.0695 121.214L64.0999 121.351C64.2138 121.898 64.5782 123.138 65.6337 124.005C65.5426 123.595 65.497 123.062 65.6185 122.56L65.7096 122.165Z" fill="black"/>
<path d="M63.8803 119.341L63.5727 119.874L72.0292 124.765L72.3367 124.232L63.8803 119.341Z" fill="black"/>
<path d="M97.4725 126.059L91.6257 119.586C91.4358 119.48 91.284 119.183 91.284 118.932V117.068C91.284 116.817 91.4358 116.703 91.6257 116.81L99.7809 121.526C99.9707 121.632 100.123 121.929 100.123 122.18V124.043C100.123 124.294 97.6623 126.165 97.4725 126.059Z" fill="#01FFA9"/>
<path d="M97.4877 126.454C97.4193 126.454 97.3434 126.439 97.2751 126.394L97.1839 126.318L91.375 119.883C91.0941 119.685 90.8967 119.297 90.8967 118.932V117.068C90.8967 116.794 91.0106 116.566 91.208 116.452C91.3978 116.346 91.618 116.353 91.8231 116.467L99.9783 121.183C100.29 121.366 100.517 121.777 100.517 122.172V124.036C100.517 124.644 98.004 126.249 97.9812 126.264C97.8142 126.371 97.6471 126.454 97.4877 126.454ZM91.6788 117.289V118.932C91.6788 119.061 91.7775 119.213 91.8231 119.244L91.9142 119.32L97.5864 125.603C98.1179 125.298 99.4467 124.279 99.7353 123.944V122.172C99.7353 122.043 99.6366 121.891 99.591 121.86L91.6788 117.289Z" fill="black"/>
<path d="M100.047 107.058L98.8924 106.389V105.948C98.8924 105.187 98.3305 104.252 97.6395 103.849L96.4854 103.179V102.738C96.4854 101.977 95.9235 101.042 95.2325 100.639L94.0783 99.9694V95.8468C94.0783 95.0862 93.5164 94.1506 92.8254 93.7475L92.5217 93.5725C92.1648 93.3672 91.6105 93.4736 91.6105 93.4736L88.8085 95.3068C88.7782 95.322 88.763 95.3524 88.7782 95.3904C88.8769 95.7479 89.454 97.8853 89.4312 98.007C89.416 98.0754 88.6187 97.9309 87.9277 97.794C87.624 97.5886 87.3127 97.4822 87.0469 97.5506L86.9178 97.581C86.7811 97.6115 84.0931 99.4218 84.0931 99.4218L91.8307 113.98C92.0509 114.893 92.1724 115.79 92.1724 116.627V116.886L93.9112 117.89L96.5765 122.91L99.4012 121.069L100.434 119.609C101.003 118.803 101.307 117.7 101.307 116.407V109.158C101.3 108.397 100.738 107.462 100.047 107.058Z" fill="#01FFA9"/>
<path d="M96.4246 123.473L93.6075 118.179L91.7699 117.114V116.627C91.7699 115.867 91.6636 115.022 91.451 114.117L83.5691 99.2924L83.8653 99.0946C86.6141 97.2463 86.7355 97.2159 86.8191 97.2007L86.9482 97.1703C87.2899 97.0866 87.6771 97.1779 88.072 97.4289C88.4744 97.5125 88.7478 97.5582 88.9376 97.5886C88.8313 97.1398 88.6339 96.3792 88.3909 95.4969C88.3377 95.2991 88.4213 95.0937 88.5883 94.9873L91.5269 93.1009C91.5953 93.0857 92.2331 92.9716 92.7115 93.2454L93.0152 93.4204C93.8277 93.8919 94.4655 94.9644 94.4655 95.8544V99.7488L95.4223 100.304C96.2348 100.776 96.8726 101.848 96.8726 102.738V102.951L97.8294 103.506C98.6419 103.978 99.2797 105.05 99.2797 105.94V106.153L100.236 106.709C101.049 107.18 101.687 108.253 101.687 109.143V116.391C101.687 117.768 101.36 118.955 100.745 119.822L99.6062 121.381L96.4246 123.473ZM92.552 116.665L94.1922 117.616L96.7132 122.355L99.1126 120.788L100.107 119.388C100.631 118.65 100.905 117.624 100.905 116.407V109.158C100.905 108.534 100.419 107.728 99.8416 107.401L98.49 106.617V105.948C98.49 105.324 98.004 104.518 97.4345 104.191L96.0829 103.407V102.738C96.0829 102.114 95.5969 101.308 95.0199 100.981L93.6682 100.198V95.8544C93.6682 95.2307 93.1823 94.4244 92.6052 94.0973L92.3014 93.9224C92.1572 93.8387 91.8838 93.8387 91.7319 93.8615L89.1882 95.5273C89.8336 97.9005 89.8108 97.9993 89.7805 98.1134C89.6666 98.5622 89.2413 98.4785 87.8214 98.1895L87.6771 98.1286C87.4569 97.9765 87.2443 97.9081 87.1152 97.9385L86.9785 97.9689C86.8722 98.0298 85.7029 98.8056 84.5791 99.5586L92.1875 113.896C92.4229 114.878 92.5368 115.798 92.5368 116.635V116.665H92.552Z" fill="black"/>
<path d="M96.0677 108.23V107.789C96.0677 107.028 95.5058 106.093 94.8148 105.689L93.6607 105.02V104.579C93.6607 103.818 93.0988 102.883 92.4078 102.48L91.2536 101.81V97.6876C91.2536 96.9269 90.6917 95.9914 90.0007 95.5882L89.697 95.4133C89.006 95.0102 88.4441 95.2992 88.4441 96.0598V106.161C88.4441 106.191 88.4061 106.184 88.3909 106.146L87.7834 104.647C87.3506 103.582 86.8798 102.518 86.3635 101.468L85.9762 100.684C85.5586 99.8325 84.7765 99.2545 84.2146 99.3914L84.0855 99.4218C83.554 99.5511 83.4249 100.281 83.7894 101.095C84.2146 102.046 84.5563 103.004 84.8221 103.948L85.4447 106.184C86.037 108.314 86.8495 110.474 87.867 112.603C88.8313 114.612 89.3477 116.665 89.3477 118.46V118.719L96.5765 122.902L97.6092 121.442C98.1787 120.636 98.4824 119.533 98.4824 118.24V110.991C98.4824 110.23 97.9205 109.295 97.2295 108.892L96.0677 108.23Z" fill="white"/>
<path d="M96.6828 123.435L88.9452 118.962V118.475C88.9452 116.726 88.444 114.764 87.5025 112.786C86.4774 110.641 85.6497 108.458 85.0574 106.305L84.4348 104.069C84.1766 103.141 83.8349 102.206 83.4249 101.27C83.1439 100.639 83.1135 100.03 83.3262 99.5967C83.4628 99.3152 83.6982 99.1251 83.9944 99.0566L84.1235 99.0262C84.8676 98.8513 85.8168 99.4902 86.3255 100.532L86.7128 101.316C87.1912 102.297 87.6392 103.301 88.0492 104.29V96.0826C88.0492 95.5806 88.239 95.2002 88.5883 94.9949C88.9452 94.7819 89.4236 94.8199 89.8944 95.0938L90.1981 95.2687C91.0106 95.7403 91.6484 96.8128 91.6484 97.7103V101.605L92.6052 102.16C93.4177 102.632 94.0555 103.704 94.0555 104.594V104.807L95.0123 105.362C95.8247 105.834 96.4626 106.906 96.4626 107.796V108.009L97.4193 108.564C98.2318 109.036 98.8697 110.109 98.8697 110.998V118.247C98.8697 119.624 98.5431 120.811 97.9281 121.678L96.6828 123.435ZM89.7273 118.506L96.455 122.4L97.2827 121.229C97.8066 120.491 98.08 119.464 98.08 118.247V110.998C98.08 110.375 97.594 109.569 97.0169 109.241L95.6653 108.458V107.789C95.6653 107.165 95.1793 106.359 94.6022 106.032L93.2506 105.248V104.579C93.2506 103.955 92.7646 103.149 92.1875 102.822L90.8359 102.038V97.6951C90.8359 97.0714 90.35 96.2651 89.7729 95.9381L89.4691 95.7631C89.2565 95.6414 89.0591 95.6034 88.9452 95.6642C88.8541 95.7175 88.8009 95.8696 88.8009 96.0674V106.488L88.1555 106.632L87.996 106.298L87.3886 104.799C86.9634 103.75 86.4926 102.692 85.9838 101.643L85.5966 100.859C85.2169 100.083 84.5867 99.6956 84.2829 99.7716L84.1538 99.802C84.1083 99.8096 84.0551 99.8401 84.0096 99.9237C83.926 100.091 83.9108 100.456 84.1235 100.935C84.5563 101.901 84.9056 102.883 85.1713 103.849L85.794 106.085C86.3787 108.192 87.1836 110.329 88.1935 112.436C89.1882 114.513 89.7121 116.597 89.7121 118.46V118.506H89.7273Z" fill="black"/>
<path d="M97.1308 126.013L88.9756 121.297C88.7858 121.191 88.6339 120.894 88.6339 120.643V118.78C88.6339 118.529 88.7858 118.415 88.9756 118.521L97.1308 123.237C97.3206 123.343 97.4725 123.64 97.4725 123.891V125.755C97.4725 126.006 97.3206 126.127 97.1308 126.013Z" fill="white"/>
<path d="M97.2675 126.447C97.1612 126.447 97.0473 126.416 96.9334 126.356L88.7782 121.64C88.4668 121.457 88.239 121.046 88.239 120.651V118.787C88.239 118.513 88.3529 118.285 88.5504 118.171C88.7326 118.065 88.9604 118.072 89.1654 118.186L97.3206 122.902C97.632 123.085 97.8598 123.496 97.8598 123.891V125.755C97.8598 126.028 97.7459 126.257 97.5484 126.371C97.4649 126.424 97.3662 126.447 97.2675 126.447ZM89.0287 119.008V120.651C89.0287 120.78 89.1275 120.932 89.173 120.963L97.0852 125.534V123.891C97.0852 123.762 96.9865 123.61 96.941 123.579L89.0287 119.008Z" fill="black"/>
<path d="M91.6332 101.818H90.8511V106.131H91.6332V101.818Z" fill="black"/>
<path d="M88.8237 105.682H88.0416V108.785H88.8237V105.682Z" fill="black"/>
<path d="M94.0479 108.572H93.2658V104.815L96.2652 102.852L96.6904 103.514L94.0479 105.241V108.572Z" fill="black"/>
<path d="M96.455 111.28H95.6729V108.017L98.6722 106.062L99.105 106.716L96.455 108.443V111.28Z" fill="black"/>
<path d="M98.4748 110.998L101.3 109.158V115.943L100.988 118.483L100.198 119.936L99.2113 121.191L97.2295 121.982L98.4748 119.921L98.6039 118.483L98.4748 110.998Z" fill="black"/>
<path d="M91.246 97.5278L94.0479 95.7783L94.0707 99.9466L91.246 101.818V97.5278Z" fill="black"/>
<path d="M97.4725 124.363C97.4725 124.363 99.6518 122.994 100.123 122.644V124.363L97.799 125.922L97.4725 124.363Z" fill="black"/>
<path d="M93.8525 99.6099L91.0298 101.484L91.4619 102.137L94.2847 100.263L93.8525 99.6099Z" fill="black"/>
<path d="M100.685 116.52L98.6496 117.849L98.9691 118.34L101.004 117.01L100.685 116.52Z" fill="#01FFA9"/>
<path d="M85.4524 90.1486L85.0613 90.827L89.0726 93.1469L89.4636 92.4685L85.4524 90.1486Z" fill="white"/>
<path d="M91.9977 86.3466H91.2156V90.5909H91.9977V86.3466Z" fill="white"/>
<path d="M87.1819 85.9053L86.5212 86.3247L89.5372 91.0921L90.1979 90.6727L87.1819 85.9053Z" fill="white"/>
<path d="M75.4671 61.8239L63.0748 54.6588C62.5129 54.3393 62.0649 54.6816 62.0649 55.427V61.1165C62.0649 61.8619 62.5205 62.729 63.0748 63.0561L64.5023 63.8776C64.6314 64.5013 65.1098 66.1823 66.6892 67.095C66.7727 67.1407 66.8259 67.0722 66.7879 66.9657C66.6512 66.5854 66.4386 65.802 66.6133 65.1022L75.4671 70.2212C76.029 70.5407 76.477 70.1984 76.477 69.453V63.7635C76.4846 63.0181 76.029 62.151 75.4671 61.8239Z" fill="#01FFA9"/>
<path d="M75.8695 70.6472C75.6873 70.6472 75.505 70.594 75.3152 70.4799L66.8639 65.589C66.8487 66.1139 67.0005 66.6235 67.0841 66.8441C67.1524 67.0266 67.1068 67.2092 66.9778 67.3156C66.8563 67.4145 66.6892 67.4297 66.5373 67.3461C64.9655 66.4409 64.4112 64.836 64.229 64.0602L62.9229 63.3071C62.2699 62.9268 61.7536 61.9608 61.7536 61.1013V55.4118C61.7536 54.9098 61.9358 54.5067 62.2547 54.3241C62.5357 54.1644 62.885 54.1796 63.2267 54.3774L75.6189 61.5425C76.272 61.9228 76.7883 62.8888 76.7883 63.7483V69.4378C76.7883 69.9398 76.6061 70.3429 76.2872 70.5255C76.1581 70.6168 76.0214 70.6472 75.8695 70.6472ZM66.4159 64.6306L75.6189 69.955C75.7025 70.0007 75.8619 70.0767 75.9682 70.0083C76.0897 69.9398 76.1657 69.7268 76.1657 69.453V63.7635C76.1657 63.1246 75.7708 62.364 75.3076 62.0977L62.9153 54.9326C62.8318 54.887 62.6724 54.8109 62.5585 54.8794C62.437 54.9478 62.361 55.1608 62.361 55.4346V61.1241C62.361 61.7631 62.7559 62.5237 63.2191 62.7899L64.7681 63.6875L64.7985 63.8244C64.9124 64.372 65.2769 65.6194 66.3323 66.479C66.2488 66.0682 66.1957 65.5358 66.3171 65.0338L66.4159 64.6306Z" fill="black"/>
<path d="M65.199 58.8584L64.8915 59.3919L73.348 64.2827L73.6555 63.7492L65.199 58.8584Z" fill="black"/>
<path d="M65.1978 60.7981L64.8903 61.3317L73.3467 66.2225L73.6543 65.689L65.1978 60.7981Z" fill="black"/>
</svg>
