<svg width="186" height="199" viewBox="0 0 186 199" fill="none" xmlns="http://www.w3.org/2000/svg">
<path d="M17.4998 120.093L16.9977 119.801L6.24609 125.992L6.74812 126.284L17.4998 120.093Z" fill="black"/>
<path d="M18.8943 120.913L18.3923 120.614L7.64062 126.805L8.14265 127.097L18.8943 120.913Z" fill="black"/>
<path d="M20.3103 121.74L19.8083 121.448L9.05664 127.632L9.55866 127.924L20.3103 121.74Z" fill="black"/>
<path d="M21.6755 122.539L21.1735 122.247L10.4219 128.431L10.9239 128.729L21.6755 122.539Z" fill="black"/>
<path d="M23.0985 123.366L22.5965 123.074L11.8379 129.264L12.3399 129.556L23.0985 123.366Z" fill="black"/>
<path d="M24.1863 124.352C24.1584 124.186 24.0887 124.026 23.9562 123.901L13.2324 130.071C13.4346 130.182 13.6508 130.244 13.8739 130.286L24.1863 124.352Z" fill="black"/>
<path d="M14.6899 118.454C14.4947 118.342 14.2785 118.273 14.0624 118.231L3.70117 124.193C3.73603 124.359 3.8197 124.512 3.95218 124.63L14.6899 118.454Z" fill="black"/>
<path d="M15.5817 118.975L4.83008 125.158L5.3321 125.457L16.0837 119.266L15.5817 118.975Z" fill="black"/>
<path d="M19.8341 115.897L5.61707 115.918C5.4567 115.918 5.32422 116.05 5.32422 116.209L5.33119 120.58H5.33816C5.37303 121.01 5.69376 121.462 6.30735 121.816L10.5885 124.276C11.7738 124.957 13.5658 125.033 14.5907 124.443L19.4436 121.65C19.9387 121.365 20.1548 120.983 20.1269 120.58V116.189C20.1269 116.029 19.9944 115.897 19.8341 115.897Z" fill="#01FFA9"/>
<path d="M12.8415 125.283C11.9839 125.283 11.0775 125.075 10.3593 124.658L6.07818 122.198C5.52038 121.879 5.14386 121.469 4.97652 121.024H4.89285L4.88588 120.587L4.87891 116.216C4.87891 115.813 5.20662 115.487 5.61102 115.487L19.828 115.466C20.0232 115.466 20.2045 115.542 20.344 115.681C20.4834 115.82 20.5601 116.001 20.5601 116.195V121.024H20.5113C20.3998 121.42 20.1069 121.775 19.6537 122.032L14.8008 124.825C14.2709 125.13 13.5737 125.283 12.8415 125.283ZM5.76442 120.517V120.552C5.78534 120.851 6.05726 121.177 6.51745 121.441L10.7986 123.901C11.8445 124.498 13.476 124.575 14.3616 124.067L19.2144 121.274C19.4376 121.142 19.7025 120.927 19.6816 120.614L19.6467 120.149H19.6816V116.334L5.76442 116.355V120.517Z" fill="black"/>
<path d="M19.8343 115.911L13.2871 115.917V124.825C13.7752 124.776 14.2284 124.658 14.584 124.449L19.4369 121.656C19.9319 121.372 20.1481 120.989 20.1202 120.586H20.1272V116.195C20.1272 116.043 19.9947 115.911 19.8343 115.911Z" fill="black"/>
<path d="M19.4375 116.987L14.5846 119.78C13.5596 120.371 11.7677 120.295 10.5824 119.614L6.30123 117.154C5.1159 116.473 4.9904 115.438 6.01536 114.854L10.8682 112.061C11.8932 111.471 13.6851 111.547 14.8705 112.228L19.1516 114.688C20.3369 115.369 20.4694 116.397 19.4375 116.987Z" fill="white"/>
<path d="M12.8415 120.621C11.9839 120.621 11.0775 120.413 10.3593 119.996L6.07818 117.536C5.31818 117.099 4.87891 116.487 4.87891 115.855C4.87891 115.306 5.19964 114.813 5.79231 114.479L10.6452 111.686C11.8096 111.019 13.7619 111.089 15.0867 111.853L19.3678 114.313C20.1278 114.75 20.5671 115.362 20.5671 115.994C20.5671 116.543 20.2464 117.036 19.6537 117.37L14.8008 120.163C14.2709 120.468 13.5737 120.621 12.8415 120.621ZM12.6045 112.096C12.0327 112.096 11.4889 112.207 11.0914 112.437L6.23855 115.23C6.0224 115.355 5.76442 115.563 5.76442 115.855C5.76442 116.161 6.05029 116.508 6.52442 116.779L10.8056 119.239C11.8514 119.836 13.483 119.913 14.3685 119.405L19.2214 116.612C19.4376 116.487 19.6955 116.279 19.6955 115.994C19.6955 115.688 19.4097 115.341 18.9355 115.07L14.6544 112.61C14.0757 112.27 13.3157 112.096 12.6045 112.096Z" fill="black"/>
<path d="M11.4821 119.843H10.6035V124.484H11.4821V119.843Z" fill="black"/>
<path d="M18.8033 118.669H18.127V120.948H18.8033V118.669Z" fill="#01FFA9"/>
<path d="M39.861 152.783L21.084 163.573L39.861 152.783Z" fill="black"/>
<path d="M39.3585 155.18C39.4562 154.937 39.5398 154.701 39.6095 154.458L23.998 163.428C24.4234 163.386 24.8487 163.337 25.267 163.282L39.3585 155.18Z" fill="black"/>
<path d="M37.8941 157.522C38.18 157.188 38.438 156.841 38.6681 156.493L27.5469 162.885C28.1535 162.753 28.7462 162.608 29.3318 162.441L37.8941 157.522Z" fill="black"/>
<path d="M17.6956 141.958C17.2633 142 16.831 142.056 16.4057 142.118L2.53728 150.087C2.43269 150.331 2.34902 150.574 2.2793 150.817L17.6956 141.958Z" fill="black"/>
<path d="M20.6236 141.799C20.268 141.799 19.9124 141.812 19.5568 141.826L2.04881 151.887C2.02092 152.088 2.00697 152.297 2 152.498L20.6236 141.799Z" fill="black"/>
<path d="M23.1131 141.868C22.7994 141.847 22.4926 141.833 22.1788 141.819L2.03516 153.394C2.05607 153.575 2.08396 153.749 2.11883 153.929L23.1131 141.868Z" fill="black"/>
<path d="M25.3573 142.104C25.0854 142.069 24.8134 142.021 24.5415 141.993L2.33398 154.749C2.38976 154.909 2.44554 155.069 2.51527 155.229L25.3573 142.104Z" fill="black"/>
<path d="M27.3321 142.445C27.0811 142.396 26.8371 142.341 26.5791 142.292L2.85156 155.924C2.92826 156.07 3.01193 156.216 3.10257 156.361L27.3321 142.445Z" fill="black"/>
<path d="M29.1994 142.896C28.9693 142.834 28.7392 142.771 28.5091 142.709L3.56836 157.035C3.67295 157.167 3.77754 157.299 3.8891 157.438L29.1994 142.896Z" fill="black"/>
<path d="M30.2459 143.209L4.43359 158.036C4.55213 158.161 4.67763 158.279 4.81011 158.404L30.8804 143.424C30.6712 143.348 30.4551 143.278 30.2459 143.209Z" fill="black"/>
<path d="M32.4485 144.05C32.2533 143.966 32.0581 143.883 31.8629 143.8L5.46484 158.967C5.60429 159.078 5.75072 159.189 5.89714 159.3L32.4485 144.05Z" fill="black"/>
<path d="M33.858 144.738C33.6837 144.64 33.5024 144.55 33.3281 144.46L6.60938 159.808C6.76277 159.912 6.92314 160.016 7.09048 160.113L33.858 144.738Z" fill="black"/>
<path d="M35.1814 145.516C35.021 145.411 34.8607 145.314 34.7003 145.21L7.92578 160.593C8.10009 160.69 8.28138 160.78 8.45569 160.871L35.1814 145.516Z" fill="black"/>
<path d="M36.3328 146.349C36.1933 146.238 36.0469 146.127 35.9004 146.016L9.32812 161.281C9.51639 161.364 9.7186 161.447 9.91383 161.531L36.3328 146.349Z" fill="black"/>
<path d="M37.3715 147.28C37.2529 147.155 37.1205 147.037 36.988 146.919L10.8828 161.913C11.092 161.989 11.3081 162.059 11.5173 162.128L37.3715 147.28Z" fill="black"/>
<path d="M38.2301 148.26C38.1255 148.128 38.0209 147.996 37.9093 147.864L12.5293 162.448C12.7594 162.51 12.9895 162.573 13.2196 162.635L38.2301 148.26Z" fill="black"/>
<path d="M38.961 149.365C38.8773 149.219 38.7936 149.073 38.703 148.927L14.3828 162.899C14.6338 162.955 14.8848 163.004 15.1358 163.052L38.961 149.365Z" fill="black"/>
<path d="M39.4987 150.553C39.4429 150.393 39.3802 150.233 39.3174 150.073L16.3848 163.247C16.6567 163.288 16.9286 163.33 17.2006 163.358L39.4987 150.553Z" fill="black"/>
<path d="M39.8126 151.901C39.7917 151.72 39.7638 151.547 39.7219 151.373L18.623 163.497C18.9298 163.518 19.2366 163.539 19.5434 163.552L39.8126 151.901Z" fill="black"/>
<path d="M39.861 152.783L21.084 163.573C21.4396 163.573 21.7952 163.559 22.1508 163.546L39.8262 153.395C39.8401 153.193 39.861 152.985 39.861 152.783Z" fill="black"/>
<path d="M14.0898 142.528C13.4692 142.667 12.8557 142.82 12.256 143.001L4.09815 147.683C3.79136 148.031 3.51246 148.378 3.27539 148.74L14.0898 142.528Z" fill="black"/>
<path d="M34.067 139.804L19.0063 138.568H18.9994L16.796 140.055C16.796 140.055 16.796 140.055 16.7891 140.055C13.498 140.319 10.3325 141.152 7.81542 142.542C6.92294 143.035 6.16293 143.57 5.50751 144.14H5.50054L2.7952 143.654C2.78822 143.654 2.78822 143.654 2.78822 143.661L2.78125 149.337L2.78822 149.344C2.7952 151.748 4.37796 154.152 7.56441 155.993C13.9512 159.682 24.3194 159.696 30.7202 156.028C31.4593 155.604 32.1008 155.152 32.6655 154.673V154.666L32.6725 148.997C32.6725 148.99 32.6725 148.99 32.6655 148.99L25.5047 147.711C25.4978 147.711 25.4978 147.697 25.5047 147.697L34.0391 145.481C34.0461 145.481 34.0461 145.474 34.0461 145.474L34.0531 139.811C34.074 139.804 34.067 139.804 34.067 139.804Z" fill="#01FFA9"/>
<path d="M2.38309 143.459L2.70382 143.216L2.89905 143.258L5.39522 143.702C6.07853 143.126 6.81762 142.625 7.62643 142.181C10.0947 140.819 13.2184 139.943 16.6559 139.652L18.894 138.137L19.0474 138.151L34.4846 139.443L34.4777 139.811L34.4707 145.745L34.1918 145.849L27.3866 147.621L33.0901 148.642L33.0832 154.819L32.9716 154.944C32.3231 155.493 31.6468 155.965 30.9286 156.375C24.4233 160.106 13.8529 160.085 7.36147 156.34C4.25172 154.548 2.49465 152.158 2.38309 149.587H2.37611L2.36914 149.337L2.38309 143.459ZM19.1102 138.985L16.879 140.458C13.4624 140.735 10.4154 141.583 8.02387 142.903C7.20111 143.362 6.44807 143.876 5.78568 144.453L5.61834 144.592L5.40219 144.536L3.19887 144.147V149.351C3.20584 151.713 4.83045 153.95 7.77285 155.653C14.0412 159.273 24.249 159.286 30.5242 155.687C31.1448 155.333 31.7375 154.93 32.2743 154.492L32.2813 149.337L25.1275 148.066L25.0996 147.405L25.4134 147.308L33.6549 145.168L33.6619 140.18L19.1102 138.985Z" fill="black"/>
<path d="M19.1938 143.668L34.0592 139.804C34.0662 139.804 34.0662 139.798 34.0662 139.791C33.0343 138.477 31.4794 137.268 29.3319 136.296C22.9799 133.412 13.6646 133.649 7.83554 136.866C1.20466 140.52 1.12099 146.586 7.58453 150.317C13.9714 154.006 24.3395 154.02 30.7403 150.351C31.4724 149.928 32.1139 149.476 32.6787 149.004C32.6857 148.997 32.6787 148.99 32.6787 148.99L19.1938 143.681C19.1868 143.681 19.1868 143.668 19.1938 143.668Z" fill="white"/>
<path d="M3.50641 140.096C4.39193 138.748 5.78643 137.533 7.63415 136.511C13.5957 133.225 22.9946 132.975 29.5 135.928C31.6057 136.886 33.2512 138.102 34.3878 139.547L34.5133 139.707L34.4087 140.117L34.1995 140.194L20.4845 143.758L33.0351 148.698L33.1327 149.156L32.9514 149.316C32.3378 149.83 31.6615 150.296 30.9503 150.706C24.4449 154.437 13.8746 154.416 7.38314 150.671C4.14091 148.802 2.36989 146.287 2.39081 143.598C2.39778 142.375 2.78127 141.194 3.50641 140.096ZM33.3419 139.575C32.303 138.436 30.9015 137.463 29.1584 136.671C22.8691 133.815 13.7839 134.052 8.03159 137.227C4.94276 138.929 3.22751 141.201 3.20659 143.612C3.18568 145.995 4.81028 148.246 7.78755 149.969C14.0559 153.589 24.2567 153.603 30.5389 150.004C31.0131 149.733 31.4593 149.441 31.8846 149.122L18.7693 143.959L18.8042 143.355L19.097 143.278L33.3419 139.575Z" fill="black"/>
<path d="M32.6446 148.983L19.1876 143.682C19.1806 143.682 19.1736 143.688 19.1806 143.688L23.8104 152.714C26.3484 152.29 28.733 151.498 30.7411 150.352C31.4662 149.935 32.0938 149.49 32.6516 149.024C32.6725 149.011 32.6655 148.99 32.6446 148.983Z" fill="white"/>
<path d="M18.6855 143.626L19.076 143.181L19.3619 143.306L33.0141 148.684L33.1048 149.156L32.9235 149.33C32.3169 149.837 31.6545 150.296 30.9502 150.699C28.977 151.831 26.5366 152.665 23.8871 153.11L23.5942 153.158L18.6855 143.626ZM31.8846 149.115L20.0312 144.446L24.0405 152.255C26.4808 151.818 28.719 151.032 30.5389 149.997C31.006 149.726 31.4592 149.434 31.8846 149.115Z" fill="black"/>
<path d="M19.1872 143.709C19.1872 143.702 19.1663 143.702 19.1663 143.709L19.1523 153.089C20.7212 153.089 22.29 152.957 23.803 152.7L19.1872 143.709Z" fill="black"/>
<path d="M29.6445 150.97V156.563C30.544 156.292 31.9524 155.264 32.8519 154.562L32.6846 148.997L29.6445 150.97Z" fill="black"/>
<path d="M18.7612 143.397L19.4026 143.23L19.549 143.529L24.4228 153.019L23.872 153.11C22.3241 153.374 20.7344 153.506 19.1516 153.499H18.7402L18.7612 143.397ZM23.1887 152.394L19.5769 145.356L19.563 152.679C20.7762 152.665 21.9964 152.568 23.1887 152.394Z" fill="black"/>
<path d="M19.187 153.11L19.2009 143.744C19.2009 143.737 19.187 143.737 19.18 143.744L15.875 152.908C16.9697 153.04 18.0783 153.11 19.187 153.11Z" fill="#01FFA9"/>
<path d="M18.9142 143.285L19.6045 143.397L19.6115 143.744L19.5975 153.513H19.1862C18.0845 153.513 16.955 153.443 15.8254 153.304L15.3164 153.256L18.9142 143.285ZM18.7748 152.7L18.7818 146.037L16.439 152.561C17.2199 152.644 18.0008 152.686 18.7748 152.7Z" fill="black"/>
<path d="M23.4008 152.709L23.3906 158.393L24.2064 158.394L24.2166 152.711L23.4008 152.709Z" fill="black"/>
<path d="M5.70406 149.268L5.69336 154.951L6.50914 154.953L6.51984 149.269L5.70406 149.268Z" fill="black"/>
<path d="M7.54293 150.604L7.5332 156.288L8.34899 156.289L8.35871 150.606L7.54293 150.604Z" fill="black"/>
<path d="M30.1269 140.858L30.1172 146.541L30.933 146.543L30.9427 140.859L30.1269 140.858Z" fill="black"/>
<path d="M164.134 148.337L162.195 149.455L164.134 148.337Z" fill="black"/>
<path d="M162.947 149.608L153.883 154.819L162.947 149.608Z" fill="black"/>
<path d="M166.051 149.462L165.549 149.17L154.797 155.354L155.299 155.653L166.051 149.462Z" fill="black"/>
<path d="M167.445 150.275L166.943 149.983L156.191 156.167L156.693 156.466L167.445 150.275Z" fill="black"/>
<path d="M168.861 151.109L168.359 150.81L157.607 157.001L158.109 157.292L168.861 151.109Z" fill="black"/>
<path d="M170.233 151.908L169.724 151.609L158.973 157.8L159.475 158.091L170.233 151.908Z" fill="black"/>
<path d="M171.649 152.735L171.147 152.443L160.389 158.626L160.898 158.918L171.649 152.735Z" fill="black"/>
<path d="M172.745 153.721C172.717 153.554 172.647 153.395 172.515 153.27L161.791 159.439C161.993 159.55 162.209 159.613 162.432 159.655L172.745 153.721Z" fill="black"/>
<path d="M163.241 147.815C163.045 147.704 162.829 147.635 162.613 147.593L152.252 153.554C152.287 153.721 152.37 153.874 152.503 153.992L163.241 147.815Z" fill="black"/>
<path d="M164.635 148.635L164.133 148.337L162.194 149.455L153.381 154.527L153.883 154.819L162.947 149.608L164.635 148.635Z" fill="black"/>
<path d="M176.314 159.3L175.812 159.002L165.061 165.192L165.563 165.484L176.314 159.3Z" fill="black"/>
<path d="M177.708 160.113L177.206 159.821L166.447 166.005L166.949 166.304L177.708 160.113Z" fill="black"/>
<path d="M179.125 160.94L178.623 160.648L167.871 166.839L168.373 167.131L179.125 160.94Z" fill="black"/>
<path d="M180.49 161.739L179.988 161.447L169.236 167.638L169.738 167.93L180.49 161.739Z" fill="black"/>
<path d="M181.906 162.573L181.404 162.274L170.652 168.465L171.154 168.756L181.906 162.573Z" fill="black"/>
<path d="M183.001 163.559C182.973 163.393 182.903 163.233 182.771 163.108L172.047 169.278C172.249 169.389 172.465 169.451 172.688 169.493L183.001 163.559Z" fill="black"/>
<path d="M173.504 157.654C173.309 157.542 173.093 157.473 172.877 157.431L162.516 163.393C162.55 163.559 162.634 163.712 162.767 163.83L173.504 157.654Z" fill="black"/>
<path d="M174.397 158.175L163.639 164.365L164.141 164.657L174.899 158.473L174.397 158.175Z" fill="black"/>
<path d="M168.225 113.43L154.008 113.451C153.847 113.451 153.715 113.583 153.715 113.743L153.722 149.719H153.729C153.764 150.15 154.084 150.601 154.698 150.956L158.979 153.415C160.164 154.096 161.956 154.173 162.981 153.582L167.834 150.789C168.329 150.504 168.545 150.122 168.518 149.719H168.525V113.722C168.525 113.555 168.392 113.43 168.225 113.43Z" fill="#01FFA9"/>
<path d="M161.239 154.416C160.382 154.416 159.475 154.208 158.757 153.791L154.476 151.331C153.918 151.011 153.541 150.602 153.374 150.157H153.283L153.277 149.719L153.27 113.743C153.27 113.34 153.597 113.013 154.002 113.013L168.219 112.993C168.414 112.993 168.595 113.069 168.735 113.208C168.874 113.347 168.951 113.528 168.951 113.722V150.157H168.902C168.79 150.553 168.498 150.907 168.044 151.164L163.191 153.957C162.669 154.263 161.964 154.416 161.239 154.416ZM154.162 149.657V149.691C154.183 149.99 154.462 150.317 154.915 150.581L159.196 153.04C160.242 153.638 161.874 153.714 162.759 153.207L167.612 150.414C167.835 150.282 168.1 150.067 168.079 149.754L168.044 149.288H168.079V113.875L154.155 113.896L154.162 149.657Z" fill="black"/>
<path d="M168.225 113.444L161.678 113.451V153.964C162.166 153.916 162.619 153.798 162.975 153.589L167.828 150.796C168.323 150.511 168.539 150.129 168.511 149.726H168.518V113.729C168.525 113.569 168.392 113.437 168.225 113.444Z" fill="black"/>
<path d="M167.836 114.521L162.983 117.314C161.958 117.905 160.166 117.828 158.981 117.147L154.7 114.688C153.514 114.007 153.389 112.972 154.414 112.388L159.267 109.595C160.292 109.004 162.084 109.081 163.269 109.762L167.55 112.221C168.735 112.895 168.861 113.931 167.836 114.521Z" fill="white"/>
<path d="M161.238 118.148C160.38 118.148 159.474 117.939 158.756 117.523L154.475 115.063C153.715 114.625 153.275 114.014 153.275 113.382C153.275 112.833 153.596 112.339 154.189 112.006L159.042 109.213C160.206 108.546 162.158 108.615 163.483 109.38L167.764 111.839C168.524 112.277 168.964 112.888 168.964 113.521C168.964 114.069 168.643 114.563 168.05 114.896L163.197 117.689C162.667 117.995 161.963 118.148 161.238 118.148ZM160.994 109.63C160.422 109.63 159.878 109.741 159.481 109.97L154.628 112.763C154.412 112.888 154.154 113.097 154.154 113.389C154.154 113.694 154.44 114.042 154.914 114.313L159.195 116.772C160.241 117.37 161.873 117.446 162.758 116.939L167.611 114.146C167.827 114.021 168.085 113.812 168.085 113.528C168.085 113.222 167.799 112.874 167.325 112.603L163.044 110.144C162.472 109.796 161.712 109.63 160.994 109.63Z" fill="black"/>
<path d="M159.873 117.37H158.994V153.617H159.873V117.37Z" fill="black"/>
<path d="M167.194 116.196H166.518V150.081H167.194V116.196Z" fill="#01FFA9"/>
<path d="M178.641 145.3L164.424 145.321C164.263 145.321 164.131 145.453 164.131 145.613L164.138 160.072H164.145C164.18 160.502 164.5 160.954 165.114 161.308L169.395 163.768C170.58 164.449 172.372 164.525 173.397 163.935L178.25 161.142C178.745 160.857 178.961 160.475 178.934 160.072H178.941V145.592C178.934 145.432 178.801 145.3 178.641 145.3Z" fill="#01FFA9"/>
<path d="M171.648 164.768C170.791 164.768 169.884 164.56 169.166 164.143L164.885 161.683C164.327 161.364 163.951 160.954 163.783 160.509H163.693L163.686 160.072L163.693 145.613C163.693 145.21 164.02 144.883 164.425 144.883L178.649 144.863C179.053 144.863 179.381 145.189 179.381 145.592V160.509H179.325C179.213 160.905 178.921 161.26 178.467 161.517L173.614 164.31C173.078 164.615 172.38 164.768 171.648 164.768ZM164.571 160.009V160.044C164.592 160.342 164.871 160.669 165.324 160.933L169.605 163.393C170.651 163.99 172.283 164.067 173.168 163.559L178.021 160.766C178.244 160.634 178.509 160.419 178.488 160.106L178.453 159.641H178.488V145.745L164.564 145.766L164.571 160.009Z" fill="black"/>
<path d="M178.641 145.314L172.094 145.321V164.317C172.582 164.268 173.035 164.15 173.391 163.942L178.244 161.148C178.739 160.864 178.955 160.481 178.927 160.079H178.934V145.599C178.934 145.446 178.801 145.314 178.641 145.314Z" fill="black"/>
<path d="M178.244 146.391L173.391 149.184C172.366 149.775 170.574 149.698 169.389 149.017L165.108 146.558C163.923 145.877 163.797 144.842 164.822 144.258L169.675 141.465C170.7 140.874 172.492 140.951 173.677 141.632L177.958 144.091C179.144 144.772 179.276 145.801 178.244 146.391Z" fill="white"/>
<path d="M171.648 150.018C170.791 150.018 169.884 149.809 169.166 149.393L164.885 146.933C164.125 146.495 163.686 145.884 163.686 145.252C163.686 144.703 164.006 144.209 164.599 143.876L169.452 141.083C170.616 140.416 172.569 140.485 173.893 141.25L178.174 143.709C178.934 144.147 179.374 144.758 179.374 145.391C179.374 145.939 179.053 146.433 178.46 146.766L173.607 149.559C173.078 149.872 172.38 150.018 171.648 150.018ZM171.411 141.5C170.839 141.5 170.296 141.611 169.898 141.84L165.045 144.633C164.829 144.758 164.571 144.967 164.571 145.259C164.571 145.564 164.857 145.912 165.331 146.183L169.612 148.642C170.658 149.24 172.29 149.316 173.175 148.809L178.028 146.016C178.244 145.891 178.502 145.682 178.502 145.398C178.502 145.092 178.216 144.744 177.742 144.473L173.461 142.014C172.882 141.673 172.122 141.5 171.411 141.5Z" fill="black"/>
<path d="M170.289 149.247H169.41V163.976H170.289V149.247Z" fill="black"/>
<path d="M177.61 148.066H176.934V160.433H177.61V148.066Z" fill="#01FFA9"/>
<path d="M86.2529 163.36L79.8301 166.904L80.0665 167.33L86.4894 163.786L86.2529 163.36Z" fill="black"/>
<path d="M87.5896 164.075L81.166 167.618L81.4024 168.043L87.826 164.5L87.5896 164.075Z" fill="black"/>
<path d="M88.7888 164.831L82.3652 168.373L82.6016 168.799L89.0251 165.256L88.7888 164.831Z" fill="black"/>
<path d="M90.1482 165.522L83.7246 169.065L83.961 169.491L90.3846 165.947L90.1482 165.522Z" fill="black"/>
<path d="M91.2666 166.292L84.8438 169.836L85.0802 170.261L91.503 166.717L91.2666 166.292Z" fill="black"/>
<path d="M92.5986 167L86.1758 170.544L86.4122 170.969L92.8351 167.425L92.5986 167Z" fill="black"/>
<path d="M93.8005 167.756L87.377 171.299L87.6133 171.724L94.0369 168.182L93.8005 167.756Z" fill="black"/>
<path d="M95.1638 168.453L88.7402 171.997L88.9766 172.422L95.4002 168.879L95.1638 168.453Z" fill="black"/>
<path d="M96.3643 169.198L89.9414 172.742L90.1778 173.168L96.6007 169.624L96.3643 169.198Z" fill="black"/>
<path d="M97.0782 170.252L91.2891 173.444L91.5254 173.87L97.3145 170.677L97.0782 170.252Z" fill="black"/>
<path d="M104.667 167.481L92.498 174.195L92.7345 174.621L104.903 167.906L104.667 167.481Z" fill="black"/>
<path d="M106.022 168.183L93.8516 174.894L94.0879 175.32L106.258 168.608L106.022 168.183Z" fill="black"/>
<path d="M106.596 169.267L95.7129 175.27L95.9493 175.695L106.832 169.692L106.596 169.267Z" fill="black"/>
<path d="M107.606 170.188L97.7246 175.67L97.962 176.095L107.843 170.613L107.606 170.188Z" fill="black"/>
<path d="M65.9287 151.738L59.5059 155.282L59.7423 155.708L66.1651 152.164L65.9287 151.738Z" fill="black"/>
<path d="M67.2607 152.446L60.8379 155.99L61.0743 156.416L67.4972 152.872L67.2607 152.446Z" fill="black"/>
<path d="M68.4705 153.203L62.0469 156.746L62.2833 157.172L68.7068 153.629L68.4705 153.203Z" fill="black"/>
<path d="M69.8396 153.898L63.416 157.442L63.6524 157.867L70.076 154.323L69.8396 153.898Z" fill="black"/>
<path d="M70.947 154.675L64.5234 158.219L64.7598 158.644L71.1834 155.101L70.947 154.675Z" fill="black"/>
<path d="M72.2771 155.378L65.8535 158.921L66.0899 159.346L72.5135 155.803L72.2771 155.378Z" fill="black"/>
<path d="M73.4802 156.141L67.0566 159.685L67.293 160.11L73.7166 156.567L73.4802 156.141Z" fill="black"/>
<path d="M74.8455 156.828L68.4219 160.371L68.6583 160.797L75.0818 157.253L74.8455 156.828Z" fill="black"/>
<path d="M76.0459 157.573L69.623 161.117L69.8595 161.542L76.2823 157.998L76.0459 157.573Z" fill="black"/>
<path d="M77.3943 158.28L70.9707 161.822L71.207 162.248L77.6306 158.705L77.3943 158.28Z" fill="black"/>
<path d="M78.6064 159.032L72.1836 162.576L72.42 163.002L78.8429 159.458L78.6064 159.032Z" fill="black"/>
<path d="M79.9626 159.732L73.5391 163.276L73.7754 163.701L80.199 160.158L79.9626 159.732Z" fill="black"/>
<path d="M81.0837 160.505L74.6602 164.048L74.8965 164.473L81.3201 160.93L81.0837 160.505Z" fill="black"/>
<path d="M82.4138 161.218L75.9902 164.761L76.2266 165.187L82.6502 161.644L82.4138 161.218Z" fill="black"/>
<path d="M83.6182 161.958L77.1953 165.502L77.4317 165.927L83.8546 162.383L83.6182 161.958Z" fill="black"/>
<path d="M84.9783 162.664L78.5547 166.208L78.7911 166.633L85.2147 163.09L84.9783 162.664Z" fill="black"/>
<path d="M86.1833 163.415L79.7598 166.959L79.9961 167.384L86.4197 163.841L86.1833 163.415Z" fill="black"/>
<path d="M49.7122 143.47L45.6738 145.698L45.9102 146.123L49.9485 143.896L49.7122 143.47Z" fill="black"/>
<path d="M51.729 143.796L46.1113 146.895L46.3478 147.321L51.9655 144.221L51.729 143.796Z" fill="black"/>
<path d="M53.3142 144.349L46.8906 147.892L47.127 148.318L53.5506 144.775L53.3142 144.349Z" fill="black"/>
<path d="M54.658 145.038L48.2344 148.58L48.4707 149.006L54.8943 145.463L54.658 145.038Z" fill="black"/>
<path d="M55.8728 145.797L49.4492 149.34L49.6856 149.765L56.1092 146.222L55.8728 145.797Z" fill="black"/>
<path d="M57.2185 146.505L50.7949 150.048L51.0313 150.473L57.4549 146.93L57.2185 146.505Z" fill="black"/>
<path d="M58.4255 147.254L52.002 150.797L52.2383 151.222L58.6619 147.68L58.4255 147.254Z" fill="black"/>
<path d="M59.7849 147.949L53.3613 151.492L53.5977 151.918L60.0213 148.375L59.7849 147.949Z" fill="black"/>
<path d="M60.9092 148.714L54.4863 152.258L54.7228 152.683L61.1456 149.139L60.9092 148.714Z" fill="black"/>
<path d="M62.24 149.43L55.8164 152.974L56.0528 153.399L62.4764 149.856L62.24 149.43Z" fill="black"/>
<path d="M63.4431 150.182L57.0195 153.725L57.2559 154.15L63.6795 150.607L63.4431 150.182Z" fill="black"/>
<path d="M64.7986 150.872L58.375 154.414L58.6113 154.84L65.0349 151.297L64.7986 150.872Z" fill="black"/>
<path d="M119.581 170.708L113.158 174.252L113.395 174.677L119.817 171.133L119.581 170.708Z" fill="black"/>
<path d="M120.916 171.429L114.492 174.973L114.729 175.398L121.152 171.855L120.916 171.429Z" fill="black"/>
<path d="M122.115 172.168L115.691 175.711L115.928 176.136L122.351 172.594L122.115 172.168Z" fill="black"/>
<path d="M123.486 172.864L117.062 176.407L117.299 176.832L123.722 173.289L123.486 172.864Z" fill="black"/>
<path d="M124.588 173.637L118.164 177.18L118.4 177.605L124.824 174.063L124.588 173.637Z" fill="black"/>
<path d="M125.922 174.345L119.498 177.888L119.734 178.313L126.158 174.771L125.922 174.345Z" fill="black"/>
<path d="M127.15 175.103L120.727 178.646L120.963 179.072L127.387 175.528L127.15 175.103Z" fill="black"/>
<path d="M128.491 175.783L122.068 179.327L122.305 179.752L128.728 176.208L128.491 175.783Z" fill="black"/>
<path d="M129.698 176.54L123.275 180.084L123.512 180.51L129.935 176.966L129.698 176.54Z" fill="black"/>
<path d="M131.047 177.249L124.623 180.791L124.859 181.217L131.283 177.674L131.047 177.249Z" fill="black"/>
<path d="M132.261 178L125.838 181.543L126.074 181.968L132.498 178.425L132.261 178Z" fill="black"/>
<path d="M133.619 178.7L127.195 182.244L127.432 182.669L133.855 179.126L133.619 178.7Z" fill="black"/>
<path d="M134.187 179.772L129.051 182.605L129.287 183.031L134.424 180.198L134.187 179.772Z" fill="black"/>
<path d="M134.178 181.243L131.051 183.016L131.292 183.438L134.419 181.666L134.178 181.243Z" fill="black"/>
<path d="M99.2646 159.08L92.8418 162.624L93.0782 163.05L99.5011 159.506L99.2646 159.08Z" fill="black"/>
<path d="M100.599 159.788L94.1758 163.331L94.4122 163.756L100.836 160.213L100.599 159.788Z" fill="black"/>
<path d="M101.802 160.539L95.3789 164.083L95.6153 164.508L102.038 160.964L101.802 160.539Z" fill="black"/>
<path d="M103.15 161.233L96.7266 164.775L96.9629 165.201L103.386 161.658L103.15 161.233Z" fill="black"/>
<path d="M104.281 162.012L97.8574 165.555L98.0938 165.98L104.517 162.437L104.281 162.012Z" fill="black"/>
<path d="M105.615 162.719L99.1914 166.262L99.4278 166.688L105.851 163.145L105.615 162.719Z" fill="black"/>
<path d="M106.818 163.47L100.395 167.014L100.631 167.439L107.054 163.896L106.818 163.47Z" fill="black"/>
<path d="M109.382 164.923L104.67 167.486L104.904 167.913L109.616 165.35L109.382 164.923Z" fill="black"/>
<path d="M106.268 168.604L106.031 168.18L110.738 165.623L110.968 166.054L106.268 168.604Z" fill="black"/>
<path d="M111.956 166.382L106.615 169.263L106.848 169.691L112.188 166.809L111.956 166.382Z" fill="black"/>
<path d="M107.85 170.625L107.613 170.195L113.296 167.068L113.533 167.499L107.85 170.625Z" fill="black"/>
<path d="M114.415 167.84L107.992 171.384L108.229 171.81L114.651 168.266L114.415 167.84Z" fill="black"/>
<path d="M115.744 168.552L109.32 172.095L109.557 172.52L115.98 168.977L115.744 168.552Z" fill="black"/>
<path d="M116.959 169.306L110.535 172.849L110.772 173.274L117.195 169.731L116.959 169.306Z" fill="black"/>
<path d="M118.301 169.996L111.877 173.538L112.113 173.964L118.537 170.421L118.301 169.996Z" fill="black"/>
<path d="M119.513 170.747L113.09 174.291L113.326 174.716L119.749 171.172L119.513 170.747Z" fill="black"/>
<path d="M83.0423 150.819L79.0039 153.047L79.2403 153.472L83.2787 151.244L83.0423 150.819Z" fill="black"/>
<path d="M85.0611 151.132L79.4434 154.231L79.6798 154.657L85.2975 151.557L85.0611 151.132Z" fill="black"/>
<path d="M86.6326 151.689L80.209 155.232L80.4453 155.657L86.8689 152.115L86.6326 151.689Z" fill="black"/>
<path d="M87.9971 152.376L81.5742 155.92L81.8106 156.345L88.2335 152.801L87.9971 152.376Z" fill="black"/>
<path d="M89.2068 153.132L82.7832 156.676L83.0196 157.101L89.4432 153.558L89.2068 153.132Z" fill="black"/>
<path d="M90.5525 153.84L84.1289 157.382L84.3652 157.808L90.7888 154.265L90.5525 153.84Z" fill="black"/>
<path d="M91.7654 154.592L85.3418 158.135L85.5782 158.561L92.0018 155.017L91.7654 154.592Z" fill="black"/>
<path d="M93.1189 155.284L86.6953 158.827L86.9316 159.252L93.3552 155.71L93.1189 155.284Z" fill="black"/>
<path d="M94.2439 156.064L87.8203 159.608L88.0567 160.033L94.4803 156.49L94.2439 156.064Z" fill="black"/>
<path d="M95.572 156.766L89.1484 160.309L89.3848 160.735L95.8084 157.192L95.572 156.766Z" fill="black"/>
<path d="M96.7764 157.518L90.3535 161.062L90.5899 161.487L97.0128 157.943L96.7764 157.518Z" fill="black"/>
<path d="M98.1384 158.21L91.7148 161.754L91.9512 162.179L98.3748 158.636L98.1384 158.21Z" fill="black"/>
<path d="M67.2576 139.291L60.834 142.834L61.0704 143.259L67.4939 139.716L67.2576 139.291Z" fill="black"/>
<path d="M68.5876 140.008L62.1641 143.552L62.4005 143.977L68.8241 140.433L68.5876 140.008Z" fill="black"/>
<path d="M69.7888 140.753L63.3652 144.296L63.6016 144.722L70.0252 141.179L69.7888 140.753Z" fill="black"/>
<path d="M71.1455 141.441L64.7227 144.985L64.9591 145.41L71.3819 141.866L71.1455 141.441Z" fill="black"/>
<path d="M72.2654 142.223L65.8418 145.766L66.0782 146.192L72.5018 142.648L72.2654 142.223Z" fill="black"/>
<path d="M73.5955 142.929L67.1719 146.472L67.4082 146.897L73.8318 143.354L73.5955 142.929Z" fill="black"/>
<path d="M74.7927 143.678L68.3691 147.22L68.6055 147.646L75.029 144.103L74.7927 143.678Z" fill="black"/>
<path d="M76.1619 144.372L69.7383 147.915L69.9747 148.34L76.3982 144.797L76.1619 144.372Z" fill="black"/>
<path d="M77.3669 145.123L70.9434 148.666L71.1797 149.092L77.6033 145.548L77.3669 145.123Z" fill="black"/>
<path d="M78.7126 145.83L72.2891 149.373L72.5254 149.798L78.949 146.256L78.7126 145.83Z" fill="black"/>
<path d="M79.9295 146.588L73.5059 150.132L73.7423 150.558L80.1659 147.014L79.9295 146.588Z" fill="black"/>
<path d="M81.281 147.282L74.8574 150.825L75.0938 151.251L81.5174 147.707L81.281 147.282Z" fill="black"/>
<path d="M81.8474 148.362L76.7109 151.195L76.9473 151.62L82.0837 148.787L81.8474 148.362Z" fill="black"/>
<path d="M81.844 149.822L78.7168 151.595L78.9581 152.017L82.0853 150.245L81.844 149.822Z" fill="black"/>
<path d="M46.9307 127.664L40.5078 131.208L40.7442 131.634L47.1671 128.09L46.9307 127.664Z" fill="black"/>
<path d="M48.2607 128.365L41.8379 131.909L42.0743 132.335L48.4972 128.791L48.2607 128.365Z" fill="black"/>
<path d="M49.4724 129.126L43.0488 132.67L43.2852 133.095L49.7088 129.552L49.4724 129.126Z" fill="black"/>
<path d="M50.8162 129.816L44.3926 133.358L44.6289 133.784L51.0525 130.241L50.8162 129.816Z" fill="black"/>
<path d="M51.9451 130.594L45.5215 134.137L45.7579 134.562L52.1814 131.019L51.9451 130.594Z" fill="black"/>
<path d="M53.2744 131.297L46.8516 134.841L47.088 135.266L53.5108 131.722L53.2744 131.297Z" fill="black"/>
<path d="M54.4795 132.049L48.0566 135.593L48.2931 136.018L54.7159 132.474L54.4795 132.049Z" fill="black"/>
<path d="M55.8376 132.749L49.4141 136.292L49.6504 136.718L56.074 133.175L55.8376 132.749Z" fill="black"/>
<path d="M57.0447 133.502L50.6211 137.046L50.8575 137.471L57.2811 133.928L57.0447 133.502Z" fill="black"/>
<path d="M58.3962 134.204L51.9727 137.746L52.209 138.172L58.6326 134.629L58.3962 134.204Z" fill="black"/>
<path d="M59.615 134.957L53.1914 138.501L53.4278 138.927L59.8514 135.383L59.615 134.957Z" fill="black"/>
<path d="M60.9548 135.651L54.5312 139.194L54.7676 139.619L61.1912 136.077L60.9548 135.651Z" fill="black"/>
<path d="M62.0811 136.424L55.6582 139.968L55.8946 140.393L62.3175 136.849L62.0811 136.424Z" fill="black"/>
<path d="M63.4111 137.125L56.9883 140.669L57.2247 141.095L63.6476 137.551L63.4111 137.125Z" fill="black"/>
<path d="M64.6228 137.888L58.1992 141.431L58.4356 141.856L64.8592 138.313L64.6228 137.888Z" fill="black"/>
<path d="M65.9705 138.584L59.5469 142.127L59.7832 142.553L66.2068 139.01L65.9705 138.584Z" fill="black"/>
<path d="M67.1755 139.334L60.752 142.876L60.9883 143.302L67.4119 139.759L67.1755 139.334Z" fill="black"/>
<path d="M30.7161 119.391L26.6777 121.619L26.9141 122.044L30.9525 119.817L30.7161 119.391Z" fill="black"/>
<path d="M32.7271 119.715L27.1094 122.814L27.3458 123.24L32.9635 120.14L32.7271 119.715Z" fill="black"/>
<path d="M34.3005 120.275L27.877 123.818L28.1133 124.244L34.5369 120.7L34.3005 120.275Z" fill="black"/>
<path d="M35.6631 120.959L29.2402 124.503L29.4767 124.928L35.8995 121.384L35.6631 120.959Z" fill="black"/>
<path d="M36.8708 121.715L30.4473 125.258L30.6836 125.683L37.1072 122.14L36.8708 121.715Z" fill="black"/>
<path d="M38.2302 122.424L31.8066 125.968L32.0431 126.394L38.4666 122.85L38.2302 122.424Z" fill="black"/>
<path d="M39.4294 123.174L33.0059 126.717L33.2422 127.143L39.6658 123.599L39.4294 123.174Z" fill="black"/>
<path d="M40.7869 123.872L34.3633 127.415L34.5997 127.84L41.0232 124.297L40.7869 123.872Z" fill="black"/>
<path d="M41.906 124.646L35.4824 128.19L35.7188 128.615L42.1424 125.072L41.906 124.646Z" fill="black"/>
<path d="M43.2334 125.344L36.8105 128.888L37.047 129.313L43.4698 125.769L43.2334 125.344Z" fill="black"/>
<path d="M44.4424 126.101L38.0195 129.645L38.256 130.07L44.6788 126.526L44.4424 126.101Z" fill="black"/>
<path d="M45.7966 126.791L39.373 130.333L39.6094 130.759L46.033 127.217L45.7966 126.791Z" fill="black"/>
<path d="M43.5159 135.038L48.0202 135.128C48.0968 135.128 48.1805 135.108 48.2433 135.073L65.4933 125.151C66.5531 124.54 68.1499 124.477 69.0702 125.005L108.193 147.51C108.221 147.524 108.242 147.537 108.27 147.544L121.253 151.894C121.427 151.956 121.546 152.116 121.546 152.304V155.555C121.657 156.014 121.371 156.521 120.695 156.91L99.1358 169.312C98.076 169.924 96.4793 169.986 95.5589 169.458L43.6693 139.61C43.2509 139.367 43.0557 139.047 43.0627 138.707V135.469C43.0766 135.226 43.2788 135.031 43.5159 135.038Z" fill="black"/>
<path d="M95.3637 169.813L43.4741 139.964C42.9442 139.659 42.6514 139.207 42.6583 138.707V135.469C42.6583 135.24 42.749 135.024 42.9093 134.865C43.0767 134.705 43.2649 134.594 43.5229 134.621L48.0411 134.712L65.2912 124.79C66.4835 124.102 68.2336 124.04 69.2795 124.644L108.402 147.148L121.392 151.498C121.741 151.616 121.971 151.936 121.971 152.297V155.507C122.096 156.153 121.706 156.806 120.918 157.265L99.359 169.667C98.7175 170.035 97.9087 170.229 97.1347 170.229C96.4723 170.229 95.8448 170.09 95.3637 169.813ZM65.7026 125.506L48.4595 135.427C48.327 135.504 48.1945 135.566 48.0202 135.538L43.5159 135.448L43.5229 135.038L43.495 138.714C43.495 138.971 43.7112 139.151 43.8994 139.256L95.789 169.104C96.5769 169.555 98.0202 169.486 98.9476 168.958L120.507 156.556C120.981 156.285 121.232 155.938 121.162 155.653L121.141 152.283L108.151 147.934C108.103 147.913 108.047 147.892 107.998 147.864L68.8681 125.36C68.5195 125.158 68.0384 125.061 67.5294 125.061C66.8879 125.061 66.2185 125.214 65.7026 125.506Z" fill="black"/>
<path d="M43.6819 136.046L95.5715 165.894C96.4849 166.422 98.0886 166.352 99.1484 165.748L120.707 153.346C121.767 152.735 121.879 151.817 120.965 151.289L69.0759 121.441C68.1625 120.913 66.5588 120.983 65.499 121.587L43.9399 133.989C42.8801 134.6 42.7685 135.518 43.6819 136.046Z" fill="white"/>
<path d="M95.3627 166.255L43.4731 136.407C42.9432 136.101 42.6504 135.657 42.6504 135.156C42.6504 134.587 43.0478 134.031 43.7311 133.635L65.2902 121.233C66.4825 120.552 68.2326 120.482 69.2785 121.087L121.168 150.935C121.698 151.241 121.991 151.685 121.991 152.186C121.991 152.755 121.593 153.311 120.91 153.707L99.351 166.109C98.7096 166.477 97.9007 166.672 97.1268 166.672C96.4714 166.665 95.8438 166.526 95.3627 166.255ZM65.7016 121.941L44.1425 134.343C43.7242 134.587 43.4731 134.885 43.4731 135.149C43.4731 135.399 43.6963 135.58 43.8845 135.684L95.7741 165.533C96.562 165.984 98.0123 165.915 98.9327 165.387L120.492 152.985C120.91 152.741 121.161 152.443 121.161 152.179C121.161 151.929 120.938 151.748 120.75 151.644L68.8671 121.795C68.5185 121.594 68.0374 121.497 67.5284 121.497C66.8869 121.497 66.2176 121.65 65.7016 121.941Z" fill="black"/>
<path d="M97.447 166.498H96.8125V169.562H97.447V166.498Z" fill="#01FFA9"/>
<path d="M119.529 154.284H118.895V157.348H119.529V154.284Z" fill="#01FFA9"/>
<path d="M45.7107 137.13H45.0762V140.194H45.7107V137.13Z" fill="#01FFA9"/>
<path d="M21.6822 17.82C21.6404 17.7645 21.6613 17.688 21.7171 17.6533L25.5659 15.5272C25.7751 15.3674 26.061 15.3605 26.3748 15.5411L142.677 82.4495C143.304 82.8108 143.813 83.7765 143.813 84.6172V173.3C143.813 173.717 143.688 174.023 143.478 174.176L139.42 176.42L135.383 171.57L136.973 170.876L26.3817 107.24C25.7542 106.878 25.2452 105.913 25.2452 105.072V22.628L21.6822 17.82Z" fill="white"/>
<path d="M134.728 171.411L136.074 170.827L26.1798 107.601C25.4267 107.17 24.8341 106.059 24.8341 105.079V22.767L21.3618 18.0702C21.2711 17.9521 21.2362 17.7923 21.2711 17.6464C21.306 17.5005 21.3966 17.3684 21.5291 17.299L25.3222 15.2076C25.6708 14.9367 26.1379 14.9297 26.5912 15.1937L142.893 82.1021C143.646 82.5329 144.239 83.6445 144.239 84.6242V173.307C144.239 173.842 144.064 174.273 143.695 174.544L139.337 176.948L134.728 171.411ZM25.7684 15.8885L22.2194 17.8479L25.6568 22.4891V105.072C25.6568 105.76 26.0822 106.593 26.5842 106.878L137.894 170.917L136.06 171.716L139.532 175.885L143.242 173.842C143.325 173.78 143.409 173.606 143.409 173.293V84.6172C143.409 83.9294 142.984 83.0957 142.482 82.8108L26.1728 15.8955C26.11 15.8607 26.0334 15.826 25.9497 15.826C25.8939 15.826 25.8311 15.8399 25.7684 15.8885Z" fill="black"/>
<path d="M22.3182 109.491L138.62 176.399C139.248 176.76 139.757 176.378 139.757 175.545V86.8615C139.757 86.0277 139.248 85.055 138.62 84.6937L22.3182 17.7854C21.6906 17.4241 21.1816 17.8062 21.1816 18.64V107.323C21.1816 108.164 21.6906 109.13 22.3182 109.491Z" fill="black"/>
<path d="M138.411 176.76L22.1094 109.852C21.3563 109.421 20.7637 108.31 20.7637 107.33V18.6469C20.7637 18.0563 20.9798 17.5908 21.3633 17.3754C21.705 17.1809 22.1094 17.2017 22.5208 17.438L138.823 84.3463C139.576 84.7771 140.168 85.8888 140.168 86.8684V175.551C140.168 176.142 139.952 176.608 139.569 176.823C139.415 176.913 139.248 176.955 139.074 176.955C138.857 176.948 138.634 176.885 138.411 176.76ZM21.7817 18.0841C21.698 18.1328 21.5934 18.3134 21.5934 18.6469V107.33C21.5934 108.018 22.0187 108.845 22.5208 109.136L138.823 176.045C138.885 176.08 139.053 176.163 139.15 176.107C139.234 176.059 139.339 175.885 139.339 175.545V86.8615C139.339 86.1736 138.913 85.3399 138.411 85.055L22.1094 18.1467C22.0606 18.1189 21.956 18.0633 21.8653 18.0633C21.8374 18.0633 21.8026 18.0702 21.7817 18.0841Z" fill="black"/>
<path d="M22.487 107.837L138.454 174.551C138.635 174.655 138.789 174.544 138.789 174.301V86.4307C138.789 86.1875 138.642 85.9026 138.454 85.7984L22.487 19.0777C22.3057 18.9734 22.1523 19.0846 22.1523 19.3278V107.198C22.1523 107.448 22.2988 107.726 22.487 107.837Z" fill="white"/>
<path d="M138.244 174.905L22.2771 108.192C21.9634 108.011 21.7402 107.594 21.7402 107.198V19.3278C21.7402 19.0499 21.8588 18.8206 22.061 18.7025C22.2562 18.5913 22.4863 18.5983 22.6885 18.7233L138.656 85.4372C138.969 85.6178 139.2 86.0347 139.2 86.4307V174.301C139.2 174.579 139.081 174.808 138.879 174.926C138.788 174.975 138.691 175.003 138.586 175.003C138.474 175.003 138.356 174.975 138.244 174.905ZM22.563 107.198C22.563 107.316 22.6467 107.448 22.6885 107.476L138.37 174.03V86.4307C138.37 86.3126 138.286 86.1806 138.244 86.1528L22.563 19.5988V107.198Z" fill="black"/>
<path d="M21.1816 107.434V102.362L139.764 170.584V175.656C139.764 176.434 139.22 176.747 138.543 176.358L22.4018 109.539C21.7255 109.15 21.1816 108.205 21.1816 107.434Z" fill="black"/>
<path d="M138.328 176.712L22.193 109.894C21.3912 109.435 20.7637 108.351 20.7637 107.427V101.64L139.959 170.215L140.168 170.334V175.642C140.168 176.163 139.959 176.58 139.604 176.788C139.443 176.879 139.269 176.92 139.081 176.92C138.844 176.927 138.586 176.858 138.328 176.712ZM21.5934 103.071V107.434C21.5934 108.066 22.0606 108.872 22.6114 109.185L138.746 175.996C138.934 176.107 139.102 176.135 139.199 176.08C139.297 176.024 139.353 175.864 139.353 175.649V170.813L21.5934 103.071Z" fill="black"/>
<path d="M73.1222 135.109L72.8047 135.657L87.8183 144.303L88.1358 143.756L73.1222 135.109Z" fill="#01FFA9"/>
<path d="M143.616 82.9689L139.629 85.3541L140.052 86.0571L144.04 83.6718L143.616 82.9689Z" fill="black"/>
<path d="M32.6749 19.0288L28.6934 21.4105L29.1168 22.1135L33.0983 19.7318L32.6749 19.0288Z" fill="black"/>
<path d="M143.618 166.988L139.631 169.373L140.054 170.076L144.042 167.691L143.618 166.988Z" fill="black"/>
<path d="M111.886 161.836L112.207 161.287L109.69 159.828L109.369 160.37L111.886 161.836Z" fill="#01FFA9"/>
<path d="M97.3416 164.358C97.7669 164.358 98.1992 164.24 98.5757 164.011L103.087 161.239L102.655 160.537L98.1434 163.309C97.6693 163.601 97.0697 163.615 96.5816 163.337L51.9016 137.943L51.4902 138.658L96.1702 164.053C96.5398 164.254 96.9442 164.358 97.3416 164.358Z" fill="black"/>
<path d="M50.2157 137.922L50.6201 137.206L47.3082 135.365C47.1827 135.295 47.1618 135.17 47.1618 135.122C47.1618 135.073 47.1757 134.948 47.3012 134.878L51.9101 132.19L51.4917 131.481L46.8829 134.17C46.5342 134.371 46.332 134.732 46.332 135.135C46.339 135.538 46.5482 135.893 46.9038 136.087L50.2157 137.922Z" fill="black"/>
<path d="M143.829 163.947L139.848 166.328L140.271 167.031L144.253 164.65L143.829 163.947Z" fill="black"/>
<path d="M35.2369 20.4676L31.2559 22.8497L31.6794 23.5526L35.6605 21.1705L35.2369 20.4676Z" fill="black"/>
<path d="M143.819 87.1947L139.838 89.5764L140.261 90.2794L144.243 87.8977L143.819 87.1947Z" fill="black"/>
<path d="M147.029 154.541H146.186V171.202H147.029V154.541Z" fill="black"/>
<path d="M123.398 114.972C122.708 114.375 121.982 113.854 121.236 113.423V124.095C121.236 124.102 121.243 124.102 121.243 124.102L123.398 114.972Z" fill="black"/>
<path d="M121.487 124.463L120.915 124.373L120.908 124.095V113.208L121.313 113.041L121.438 113.166C122.17 113.59 122.895 114.111 123.6 114.722L123.725 114.806V115.021L123.718 115.056L121.487 124.463ZM121.557 113.993V121.337L123.035 115.091C122.554 114.681 122.059 114.312 121.557 113.993Z" fill="black"/>
<path d="M121.237 124.102L127.799 120.524C127.799 120.524 127.799 120.524 127.799 120.517C126.641 118.391 125.121 116.445 123.399 114.966C123.399 114.966 123.399 114.966 123.392 114.966L121.237 124.102C121.231 124.102 121.237 124.102 121.237 124.102Z" fill="#01FFA9"/>
<path d="M121.237 124.498L120.867 124.241L120.916 124.019L123.071 114.924V114.743L123.475 114.577L123.628 114.729C125.337 116.202 126.878 118.155 128.084 120.357L128.147 120.468L128.077 120.739L127.944 120.809L121.237 124.498ZM123.593 115.57L121.718 123.477L127.366 120.399C126.306 118.53 125.016 116.883 123.593 115.57Z" fill="black"/>
<path d="M121.235 124.109L130.132 129.035C130.195 126.305 129.296 123.268 127.804 120.524C127.804 120.524 127.804 120.524 127.797 120.524L121.229 124.102C121.235 124.102 121.235 124.109 121.235 124.109Z" fill="white"/>
<path d="M130.126 129.403L129.973 129.32L120.922 124.317L120.895 123.942L121.055 123.838L127.79 120.163L128.083 120.295L128.111 120.406C129.687 123.303 130.517 126.367 130.461 129.042L130.454 129.237L130.126 129.403ZM121.906 124.109L129.812 128.486C129.757 126.131 129.004 123.491 127.672 120.962L121.906 124.109Z" fill="black"/>
<path d="M121.244 124.13L116.656 129.82V129.827C117.995 131.529 119.564 132.968 121.244 133.933C126.083 136.719 130.023 134.538 130.148 129.07V129.063L121.244 124.13Z" fill="#01FFA9"/>
<path d="M125.225 135.462C123.949 135.462 122.541 135.038 121.083 134.204C119.424 133.252 117.806 131.807 116.405 130.022L116.279 129.862L116.405 129.612L121.181 123.734L121.39 123.838L130.468 128.868V129.063C130.406 131.814 129.409 133.871 127.652 134.85C126.933 135.26 126.111 135.462 125.225 135.462ZM117.074 129.82C118.406 131.46 119.898 132.773 121.411 133.641C123.663 134.934 125.769 135.17 127.345 134.281C128.851 133.44 129.729 131.647 129.82 129.237L121.334 124.54L117.074 129.82Z" fill="black"/>
<path d="M116.642 129.806L121.23 124.116V113.416V113.409C116.314 110.581 112.326 112.874 112.326 118.537C112.326 122.268 114.055 126.527 116.642 129.806Z" fill="white"/>
<path d="M116.474 130.14L116.37 129.98C113.637 126.52 111.998 122.233 111.998 118.537C111.998 115.681 112.981 113.541 114.766 112.513C116.551 111.485 118.908 111.707 121.39 113.131L121.46 113.18L121.557 113.277V113.416V124.227L121.488 124.318L116.809 130.119L116.474 130.14ZM117.255 112.527C116.46 112.527 115.735 112.708 115.094 113.076C113.518 113.986 112.646 115.924 112.646 118.537C112.646 121.927 114.173 126.006 116.642 129.278L120.902 123.998V113.604C119.612 112.888 118.371 112.527 117.255 112.527Z" fill="black"/>
<path d="M65.9806 113.194L66.4686 114.618C66.5174 114.75 66.6011 114.875 66.7057 114.959L67.8004 115.772C68.0584 115.966 68.163 116.39 67.9747 116.494L67.1798 116.925C67.1031 116.967 67.0683 117.064 67.0892 117.196L67.2775 118.558C67.3193 118.884 67.0474 118.954 66.8173 118.676L65.8341 117.516C65.7435 117.405 65.6319 117.342 65.5413 117.349L64.5582 117.377C64.3281 117.384 64.0561 117.002 64.098 116.724L64.2862 115.577C64.3072 115.466 64.2723 115.327 64.1956 115.202L63.4007 113.854C63.2125 113.535 63.317 113.229 63.575 113.333L64.6697 113.778C64.7743 113.819 64.865 113.799 64.9068 113.715L65.3949 112.854C65.5273 112.659 65.862 112.854 65.9806 113.194Z" fill="white"/>
<path d="M67.1097 119.176C66.9215 119.176 66.7332 119.079 66.5728 118.891L65.5897 117.731C65.5548 117.689 65.527 117.675 65.52 117.675L64.5717 117.71C64.3486 117.696 64.1882 117.62 64.0348 117.439C63.8814 117.266 63.735 116.974 63.7838 116.682L63.9721 115.535C63.9721 115.515 63.9651 115.452 63.9233 115.376L63.1284 114.028C62.9401 113.708 62.9401 113.368 63.1214 113.159C63.2609 112.993 63.491 112.951 63.7071 113.041L64.7042 113.451L65.1295 112.708C65.2271 112.534 65.4014 112.444 65.6037 112.465C65.8895 112.492 66.1754 112.749 66.287 113.09L66.775 114.514C66.8029 114.584 66.8517 114.66 66.9005 114.695L67.9952 115.508C68.2532 115.702 68.4136 116.043 68.3996 116.334C68.3857 116.529 68.2881 116.689 68.1347 116.772L67.4235 117.161L67.6048 118.509C67.6536 118.85 67.4862 119.051 67.3119 119.128C67.2492 119.162 67.1794 119.176 67.1097 119.176ZM65.5548 117.029C65.7431 117.029 65.9383 117.133 66.0917 117.314L66.9145 118.287L66.775 117.238C66.7402 116.974 66.8378 116.744 67.033 116.64L67.7512 116.251C67.7372 116.189 67.6954 116.084 67.6117 116.029L66.5171 115.216C66.3637 115.098 66.2312 114.924 66.1615 114.723L65.6734 113.298C65.6594 113.25 65.6315 113.208 65.6106 113.18L65.2062 113.889C65.0807 114.111 64.8227 114.195 64.5647 114.09L63.7211 113.743L64.488 115.042C64.5996 115.237 64.6484 115.452 64.6205 115.633L64.4323 116.779C64.4183 116.863 64.5229 117.029 64.5926 117.057L65.5409 117.022C65.5409 117.029 65.5479 117.029 65.5548 117.029Z" fill="black"/>
<path d="M71.9356 116.619L72.4237 118.044C72.4725 118.176 72.5562 118.301 72.6608 118.384L73.7555 119.197C74.0134 119.392 74.118 119.815 73.9298 119.92L73.1349 120.35C73.0582 120.392 73.0233 120.489 73.0443 120.621L73.2325 121.983C73.2744 122.31 73.0024 122.379 72.7723 122.101L71.7892 120.941C71.6986 120.83 71.587 120.767 71.4964 120.774L70.5132 120.802C70.2831 120.809 70.0112 120.427 70.053 120.149L70.2413 119.003C70.2622 118.891 70.2274 118.752 70.1507 118.627L69.3558 117.279C69.1675 116.96 69.2721 116.654 69.5301 116.758L70.6248 117.203C70.7294 117.245 70.82 117.224 70.8619 117.14L71.3499 116.279C71.4824 116.084 71.8171 116.279 71.9356 116.619Z" fill="white"/>
<path d="M73.0648 122.601C72.8765 122.601 72.6883 122.504 72.5279 122.317L71.5448 121.156C71.5099 121.115 71.482 121.101 71.4751 121.101L70.5268 121.135C70.5198 121.135 70.5129 121.135 70.5129 121.135C70.3246 121.135 70.1433 121.038 69.9899 120.865C69.8365 120.691 69.6901 120.399 69.7389 120.107L69.9272 118.961C69.9272 118.94 69.9202 118.877 69.8784 118.801L69.0835 117.453C68.8952 117.133 68.8952 116.793 69.0765 116.585C69.216 116.418 69.4461 116.376 69.6622 116.466L70.6593 116.876L71.0846 116.133C71.1822 115.959 71.3565 115.869 71.5587 115.89C71.8446 115.918 72.1305 116.175 72.242 116.515L72.7301 117.939C72.758 118.009 72.8068 118.085 72.8556 118.12L73.9503 118.933C74.2083 119.128 74.3756 119.468 74.3547 119.76C74.3408 119.954 74.2432 120.114 74.0898 120.197L73.3786 120.587L73.5599 121.934C73.6087 122.275 73.4413 122.476 73.267 122.553C73.2043 122.588 73.1345 122.601 73.0648 122.601ZM71.5099 120.455C71.6982 120.455 71.8934 120.559 72.0468 120.739L72.8696 121.712L72.7301 120.663C72.6953 120.399 72.7929 120.17 72.9881 120.065L73.7063 119.676C73.6923 119.614 73.6505 119.51 73.5668 119.454L72.4721 118.641C72.3187 118.523 72.1863 118.342 72.1165 118.148L71.6285 116.724C71.6145 116.675 71.5866 116.633 71.5657 116.605L71.1613 117.314C71.0288 117.536 70.7778 117.62 70.5198 117.516L69.6761 117.168L70.4431 118.467C70.5547 118.662 70.6035 118.877 70.5756 119.058L70.3874 120.204C70.3734 120.288 70.478 120.455 70.5477 120.482L71.496 120.448C71.496 120.455 71.503 120.455 71.5099 120.455Z" fill="black"/>
<path d="M77.8888 120.045L78.3768 121.469C78.4256 121.601 78.5093 121.726 78.6139 121.809L79.7086 122.622C79.9666 122.817 80.0712 123.241 79.8829 123.345L79.088 123.776C79.0113 123.817 78.9765 123.915 78.9974 124.047L79.1856 125.408C79.2275 125.735 78.9556 125.804 78.7255 125.527L77.7423 124.366C77.6517 124.255 77.5401 124.193 77.4495 124.2L76.4664 124.227C76.2363 124.234 75.9643 123.852 76.0062 123.574L76.1944 122.428C76.2154 122.317 76.1805 122.178 76.1038 122.053L75.3089 120.705C75.1207 120.385 75.2252 120.079 75.4832 120.184L76.5779 120.628C76.6825 120.67 76.7732 120.649 76.815 120.566L77.3031 119.704C77.4355 119.51 77.7702 119.704 77.8888 120.045Z" fill="white"/>
<path d="M79.0179 126.027C78.8297 126.027 78.6414 125.929 78.481 125.742L77.4979 124.582C77.463 124.54 77.4352 124.526 77.4282 124.526L76.4799 124.561C76.2638 124.554 76.0964 124.47 75.943 124.29C75.7896 124.116 75.6432 123.824 75.692 123.532L75.8803 122.386C75.8803 122.372 75.8733 122.303 75.8315 122.226L75.0366 120.878C74.8484 120.559 74.8483 120.225 75.0296 120.01C75.1691 119.843 75.3992 119.801 75.6153 119.892L76.6124 120.302L77.0377 119.558C77.1353 119.385 77.3097 119.294 77.5119 119.315C77.7977 119.343 78.0836 119.6 78.1952 119.94L78.6832 121.365C78.7111 121.434 78.7599 121.511 78.8087 121.545L79.9034 122.358C80.1614 122.553 80.3288 122.893 80.3078 123.185C80.2939 123.38 80.1963 123.539 80.0429 123.623L79.3247 124.012L79.506 125.36C79.5548 125.7 79.3875 125.902 79.2132 125.978C79.1574 126.013 79.0876 126.027 79.0179 126.027ZM77.4631 123.88C77.6513 123.88 77.8465 123.984 77.9999 124.165L78.8227 125.137L78.6832 124.088C78.6484 123.824 78.746 123.595 78.9412 123.491L79.6594 123.102C79.6454 123.039 79.6036 122.935 79.5199 122.879L78.4253 122.066C78.2649 121.948 78.1394 121.768 78.0697 121.573L77.5816 120.149C77.5676 120.1 77.5397 120.059 77.5188 120.031L77.1144 120.739C76.9889 120.962 76.724 121.045 76.4729 120.941L75.6293 120.594L76.3963 121.893C76.5078 122.08 76.5566 122.296 76.5287 122.483L76.3405 123.637C76.3265 123.72 76.4311 123.887 76.5008 123.915L77.4561 123.88C77.4491 123.88 77.4561 123.88 77.4631 123.88Z" fill="black"/>
<path d="M83.8438 123.47L84.3319 124.894C84.3807 125.026 84.4644 125.151 84.569 125.235L85.6637 126.048C85.9216 126.242 86.0262 126.666 85.838 126.77L85.0431 127.201C84.9664 127.243 84.9315 127.34 84.9525 127.472L85.1407 128.834C85.1826 129.16 84.9106 129.23 84.6805 128.952L83.6974 127.792C83.6068 127.68 83.4952 127.618 83.4046 127.625L82.4214 127.653C82.1913 127.66 81.9194 127.277 81.9613 127L82.1495 125.853C82.1704 125.742 82.1356 125.603 82.0589 125.478L81.264 124.13C81.0757 123.81 81.1803 123.505 81.4383 123.609L82.533 124.054C82.6376 124.095 82.7282 124.074 82.7701 123.991L83.2581 123.13C83.3906 122.935 83.7253 123.13 83.8438 123.47Z" fill="white"/>
<path d="M84.973 129.452C84.7847 129.452 84.5965 129.355 84.4361 129.167L83.453 128.007C83.4181 127.965 83.3902 127.951 83.3833 127.951L82.435 127.986C82.2119 127.986 82.0515 127.896 81.8981 127.715C81.7447 127.541 81.5983 127.25 81.6471 126.958L81.8354 125.811C81.8354 125.797 81.8284 125.728 81.7866 125.652L80.9917 124.304C80.8034 123.984 80.8034 123.651 80.9847 123.435C81.1242 123.268 81.3543 123.227 81.5704 123.317L82.5675 123.727L82.9928 122.984C83.0904 122.81 83.2717 122.72 83.4669 122.74C83.7528 122.768 84.0317 123.025 84.1502 123.366L84.6383 124.79C84.6662 124.859 84.715 124.936 84.7638 124.971L85.8585 125.784C86.1165 125.978 86.2838 126.319 86.2629 126.617C86.249 126.812 86.1514 126.972 85.998 127.055L85.2868 127.444L85.468 128.792C85.5169 129.132 85.3495 129.334 85.1752 129.41C85.1125 129.438 85.0427 129.452 84.973 129.452ZM83.4181 127.305C83.6064 127.305 83.8016 127.409 83.955 127.59L84.7778 128.563L84.6383 127.514C84.6035 127.25 84.7011 127.02 84.8963 126.916L85.6145 126.527C85.6005 126.464 85.5587 126.36 85.475 126.305L84.3803 125.492C84.22 125.374 84.0945 125.193 84.0247 124.998L83.5367 123.574C83.5227 123.525 83.4948 123.484 83.4739 123.456L83.0695 124.165C82.944 124.387 82.679 124.47 82.428 124.366L81.5844 124.019L82.3513 125.318C82.4629 125.506 82.5117 125.721 82.4838 125.909L82.2956 127.062C82.2816 127.145 82.3862 127.312 82.4559 127.34L83.4112 127.305C83.4042 127.305 83.4112 127.305 83.4181 127.305Z" fill="black"/>
<path d="M89.7989 126.895L90.287 128.32C90.3358 128.452 90.4195 128.577 90.5241 128.66L91.6187 129.473C91.8767 129.667 91.9813 130.091 91.7931 130.196L90.9982 130.626C90.9215 130.668 90.8866 130.765 90.9075 130.897L91.0958 132.259C91.1376 132.586 90.8657 132.655 90.6356 132.377L89.6525 131.217C89.5618 131.106 89.4503 131.043 89.3596 131.05L88.3765 131.078C88.1464 131.085 87.8745 130.703 87.9163 130.425L88.1046 129.278C88.1255 129.167 88.0906 129.028 88.0139 128.903L87.2191 127.555C87.0308 127.236 87.1354 126.93 87.3934 127.034L88.4881 127.479C88.5927 127.521 88.6833 127.5 88.7251 127.416L89.2132 126.555C89.3457 126.36 89.6804 126.555 89.7989 126.895Z" fill="#01FFA9"/>
<path d="M90.9281 132.877C90.7398 132.877 90.5516 132.78 90.3912 132.593L89.4081 131.432C89.3732 131.391 89.3453 131.377 89.3383 131.377L88.3901 131.411C88.1948 131.404 88.0066 131.321 87.8532 131.14C87.6998 130.967 87.5534 130.675 87.6022 130.383L87.7904 129.237C87.7904 129.216 87.7835 129.153 87.7416 129.077L86.9468 127.729C86.7585 127.409 86.7585 127.076 86.9398 126.861C87.0792 126.701 87.3093 126.652 87.5255 126.742L88.5226 127.152L88.9479 126.409C89.0455 126.235 89.2198 126.138 89.422 126.166C89.7079 126.194 89.9938 126.451 90.1053 126.791L90.5934 128.215C90.6213 128.285 90.6701 128.361 90.7189 128.396L91.8136 129.209C92.0716 129.396 92.2389 129.744 92.218 130.036C92.2041 130.23 92.1064 130.39 91.953 130.473L91.2418 130.863L91.4231 132.21C91.4719 132.551 91.3046 132.752 91.1303 132.829C91.0675 132.864 90.9978 132.877 90.9281 132.877ZM89.3732 130.73C89.5615 130.73 89.7567 130.835 89.9101 131.015L90.7328 131.988L90.5934 130.939C90.5585 130.668 90.6561 130.446 90.8514 130.341L91.5626 129.952C91.5486 129.89 91.5068 129.786 91.4231 129.73L90.3284 128.917C90.175 128.799 90.0426 128.625 89.9728 128.424L89.4848 126.999C89.4708 126.951 89.4429 126.909 89.422 126.881L89.0176 127.59C88.8921 127.812 88.6271 127.896 88.3761 127.792L87.5325 127.451L88.2994 128.75C88.411 128.945 88.4598 129.16 88.4319 129.341L88.2437 130.487C88.2297 130.571 88.3343 130.737 88.404 130.765L89.3593 130.73C89.3593 130.73 89.3662 130.73 89.3732 130.73Z" fill="black"/>
<path d="M45.8862 77.6624L31.739 69.5195C31.1672 69.1929 30.707 68.3106 30.707 67.5532C30.707 66.7959 31.1672 66.4485 31.739 66.7751L45.8862 74.9111C46.458 75.2376 46.9182 76.12 46.9182 76.8773C46.9182 77.6416 46.458 77.989 45.8862 77.6624Z" fill="#01FFA9"/>
<path d="M46.2972 78.107C46.1089 78.107 45.9207 78.0515 45.7254 77.9403L31.5782 69.8043C30.9088 69.4152 30.3789 68.4286 30.3789 67.5532C30.3789 67.0321 30.5672 66.6291 30.9018 66.4415C31.1947 66.2747 31.5503 66.2956 31.9059 66.4971L46.0532 74.6331C46.7225 75.0152 47.2524 76.0088 47.2524 76.8842C47.2524 77.4053 47.0642 77.8083 46.7295 77.9959C46.597 78.0723 46.4506 78.107 46.2972 78.107ZM46.0532 77.3775C46.1368 77.4261 46.2972 77.4956 46.4018 77.4331C46.4994 77.3775 46.597 77.2038 46.597 76.8842C46.597 76.2381 46.1996 75.4668 45.7254 75.1959L31.5782 67.0599C31.4945 67.0112 31.3411 66.9417 31.2296 67.0043C31.1389 67.0599 31.0343 67.2336 31.0343 67.5532C31.0343 68.1993 31.4318 68.9705 31.9059 69.2415L46.0532 77.3775Z" fill="black"/>
<path d="M45.8862 82.3383L31.739 74.1954C31.1672 73.8688 30.707 72.9865 30.707 72.2291C30.707 71.4718 31.1672 71.1244 31.739 71.451L45.8862 79.587C46.458 79.9135 46.9182 80.7959 46.9182 81.5532C46.9182 82.3175 46.458 82.6649 45.8862 82.3383Z" fill="white"/>
<path d="M46.2972 82.7829C46.1089 82.7829 45.9207 82.7273 45.7254 82.6162L31.5782 74.4802C30.9088 74.0911 30.3789 73.1045 30.3789 72.2291C30.3789 71.708 30.5672 71.305 30.9018 71.1174C31.1947 70.9506 31.5503 70.9715 31.9059 71.173L46.0532 79.309C46.7225 79.6911 47.2524 80.6847 47.2524 81.5601C47.2524 82.0812 47.0642 82.4842 46.7295 82.6718C46.597 82.7482 46.4506 82.7829 46.2972 82.7829ZM46.0532 82.0534C46.1368 82.102 46.2972 82.1715 46.4018 82.109C46.4994 82.0534 46.597 81.8797 46.597 81.5601C46.597 80.9139 46.1996 80.1427 45.7254 79.8718L31.5782 71.7358C31.4945 71.6871 31.3411 71.6176 31.2296 71.6802C31.1389 71.7358 31.0343 71.9095 31.0343 72.2291C31.0343 72.8752 31.4318 73.6464 31.9059 73.9174L46.0532 82.0534Z" fill="black"/>
<path d="M45.8862 87.0142L31.739 78.8713C31.1672 78.5447 30.707 77.6624 30.707 76.905C30.707 76.1477 31.1672 75.8003 31.739 76.1269L45.8862 84.2629C46.458 84.5894 46.9182 85.4718 46.9182 86.2291C46.9182 86.9934 46.458 87.3408 45.8862 87.0142Z" fill="white"/>
<path d="M46.2972 87.459C46.1089 87.459 45.9207 87.4034 45.7254 87.2922L31.5782 79.1562C30.9088 78.7671 30.3789 77.7805 30.3789 76.9051C30.3789 76.384 30.5672 75.981 30.9018 75.7934C31.1947 75.6267 31.5503 75.6475 31.9059 75.849L46.0532 83.985C46.7225 84.3671 47.2524 85.3607 47.2524 86.2361C47.2524 86.7572 47.0642 87.1602 46.7295 87.3478C46.597 87.4242 46.4506 87.459 46.2972 87.459ZM46.0532 86.7294C46.1368 86.7781 46.2972 86.8475 46.4018 86.785C46.4994 86.7294 46.597 86.5557 46.597 86.2361C46.597 85.59 46.1996 84.8188 45.7254 84.5478L31.5782 76.4048C31.4945 76.3562 31.3411 76.2867 31.2296 76.3493C31.1389 76.4048 31.0343 76.5785 31.0343 76.8981C31.0343 77.5443 31.4318 78.3155 31.9059 78.5865L46.0532 86.7294Z" fill="black"/>
<path d="M45.8862 91.6832L31.739 83.5472C31.1672 83.2206 30.707 82.3383 30.707 81.5809C30.707 80.8236 31.1672 80.4762 31.739 80.8028L45.8862 88.9388C46.458 89.2653 46.9182 90.1477 46.9182 90.905C46.9182 91.6624 46.458 92.0167 45.8862 91.6832Z" fill="white"/>
<path d="M46.2972 92.1349C46.1089 92.1349 45.9207 92.0793 45.7254 91.9681L31.5782 83.8252C30.9088 83.4361 30.3789 82.4495 30.3789 81.574C30.3789 81.0529 30.5672 80.65 30.9018 80.4624C31.1947 80.2956 31.5503 80.3165 31.9059 80.518L46.0532 88.654C46.7225 89.0361 47.2524 90.0296 47.2524 90.9051C47.2524 91.4192 47.0642 91.8292 46.7295 92.0167C46.597 92.1001 46.4506 92.1349 46.2972 92.1349ZM46.0532 91.4053C46.1368 91.454 46.2902 91.5234 46.4018 91.4609C46.4924 91.4053 46.597 91.2316 46.597 90.912C46.597 90.2659 46.1996 89.4947 45.7254 89.2237L31.5782 81.0807C31.4945 81.0321 31.3411 80.9626 31.2296 81.0252C31.1389 81.0807 31.0343 81.2544 31.0343 81.574C31.0343 82.2202 31.4318 82.9914 31.9059 83.2624L46.0532 91.4053Z" fill="black"/>
<path d="M45.8862 72.9587L31.739 64.8227C31.1672 64.4962 30.707 63.6138 30.707 62.8565C30.707 62.0991 31.1672 61.7517 31.739 62.0783L45.8862 70.2143C46.458 70.5408 46.9182 71.4232 46.9182 72.1805C46.9182 72.9379 46.458 73.2853 45.8862 72.9587Z" fill="#01FFA9"/>
<path d="M46.2972 73.4103C46.1089 73.4103 45.9207 73.3547 45.7254 73.2435L31.5782 65.1006C30.9088 64.7184 30.3789 63.7249 30.3789 62.8494C30.3789 62.3283 30.5672 61.9254 30.9018 61.7378C31.1947 61.571 31.5503 61.5919 31.9059 61.7933L46.0532 69.9293C46.7225 70.3115 47.2524 71.305 47.2524 72.1805C47.2524 72.7016 47.0642 73.1045 46.7295 73.2921C46.597 73.3686 46.4506 73.4103 46.2972 73.4103ZM46.0532 72.6807C46.1368 72.7294 46.2972 72.7988 46.4018 72.7363C46.4994 72.6807 46.597 72.507 46.597 72.1874C46.597 71.5413 46.1996 70.77 45.7254 70.4991L31.5782 62.3561C31.4945 62.3075 31.3411 62.238 31.2296 62.3005C31.1389 62.3561 31.0343 62.5298 31.0343 62.8494C31.0343 63.4956 31.4318 64.2668 31.9059 64.5378L46.0532 72.6807Z" fill="black"/>
<path d="M45.2098 49.6763C45.3284 50.5587 46.1581 51.4341 46.3045 51.58C46.3115 51.587 46.3115 51.6009 46.3045 51.6009C46.1581 51.58 45.3284 51.4966 45.2098 52.2401C45.2098 52.254 45.1959 52.2401 45.1959 52.2331C45.0774 51.3438 44.2407 50.4753 44.0873 50.3224C44.0803 50.3155 44.0803 50.3016 44.0873 50.3016C44.2337 50.3224 45.0704 50.4128 45.1959 49.6624C45.1889 49.6554 45.2029 49.6624 45.2098 49.6763Z" fill="black"/>
<path d="M48.3954 47.8211C48.5139 48.7035 49.3436 49.5789 49.497 49.7248C49.504 49.7318 49.504 49.7457 49.497 49.7457C49.3506 49.7248 48.5209 49.6414 48.3954 50.3849C48.3954 50.3988 48.3814 50.3849 48.3814 50.3779C48.2629 49.4886 47.4262 48.6201 47.2728 48.4672C47.2658 48.4603 47.2658 48.4464 47.2728 48.4464C47.4192 48.4672 48.2559 48.5576 48.3814 47.8072C48.3814 47.8002 48.3954 47.8141 48.3954 47.8211Z" fill="black"/>
<path d="M45.2098 45.987C45.3284 46.8693 46.1581 47.7448 46.3045 47.8907C46.3115 47.8976 46.3115 47.9115 46.3045 47.9115C46.1581 47.8907 45.3284 47.8073 45.2098 48.5507C45.2098 48.5646 45.1959 48.5507 45.1959 48.5438C45.0774 47.6545 44.2407 46.786 44.0873 46.6331C44.0803 46.6262 44.0803 46.6123 44.0873 46.6123C44.2337 46.6331 45.0704 46.7234 45.1959 45.9731C45.1889 45.9661 45.2029 45.9731 45.2098 45.987Z" fill="black"/>
<path d="M48.3954 44.1388C48.5139 45.0212 49.3436 45.8966 49.497 46.0425C49.504 46.0495 49.504 46.0634 49.497 46.0634C49.3506 46.0425 48.5209 45.9592 48.3954 46.7026C48.3954 46.7165 48.3814 46.7026 48.3814 46.6956C48.2629 45.8063 47.4262 44.9378 47.2728 44.785C47.2658 44.778 47.2658 44.7641 47.2728 44.7641C47.4192 44.785 48.2559 44.8753 48.3814 44.1249C48.3814 44.118 48.3954 44.1249 48.3954 44.1388Z" fill="black"/>
<path d="M45.2098 42.3045C45.3284 43.1868 46.1581 44.0623 46.3045 44.2082C46.3115 44.2151 46.3115 44.229 46.3045 44.229C46.1581 44.2082 45.3284 44.1248 45.2098 44.8682C45.2098 44.8821 45.1959 44.8682 45.1959 44.8613C45.0774 43.972 44.2407 43.1035 44.0873 42.9506C44.0803 42.9437 44.0803 42.9298 44.0873 42.9298C44.2337 42.9506 45.0704 43.0409 45.1959 42.2906C45.1889 42.2836 45.2029 42.2906 45.2098 42.3045Z" fill="black"/>
<path d="M42.0165 51.5244C42.135 52.4068 42.9647 53.2823 43.1181 53.4282C43.1251 53.4351 43.1251 53.449 43.1181 53.449C42.9717 53.4282 42.142 53.3448 42.0165 54.0882C42.0165 54.1021 42.0025 54.0882 42.0025 54.0813C41.884 53.1919 41.0473 52.3234 40.8939 52.1706C40.8869 52.1636 40.8869 52.1497 40.8939 52.1497C41.0403 52.1706 41.877 52.2609 42.0025 51.5105C42.0025 51.5036 42.0165 51.5105 42.0165 51.5244Z" fill="black"/>
<path d="M38.829 49.6902C38.9475 50.5795 39.7772 51.448 39.9306 51.5939C39.9376 51.6009 39.9376 51.6148 39.9306 51.6148C39.7842 51.5939 38.9545 51.5106 38.829 52.254C38.829 52.2679 38.815 52.254 38.815 52.247C38.6965 51.3577 37.8598 50.4892 37.7064 50.3364C37.6994 50.3294 37.6994 50.3155 37.7064 50.3155C37.8528 50.3364 38.6895 50.4267 38.815 49.6763C38.8081 49.6694 38.822 49.6763 38.829 49.6902Z" fill="black"/>
<path d="M35.6356 47.8559C35.7542 48.7452 36.5839 49.6137 36.7373 49.7596C36.7443 49.7665 36.7443 49.7804 36.7373 49.7804C36.5909 49.7596 35.7611 49.6693 35.6356 50.4196C35.6356 50.4335 35.6217 50.4196 35.6217 50.4127C35.5031 49.5234 34.6664 48.6549 34.513 48.502C34.5061 48.4951 34.5061 48.4812 34.513 48.4812C34.6595 48.502 35.4962 48.5923 35.6217 47.842C35.6217 47.835 35.6356 47.842 35.6356 47.8559Z" fill="black"/>
<path d="M32.4423 46.0216C32.5608 46.911 33.3905 47.7794 33.5439 47.9254C33.5509 47.9323 33.5509 47.9462 33.5439 47.9462C33.3975 47.9254 32.5678 47.835 32.4423 48.5854C32.4423 48.5993 32.4283 48.5854 32.4283 48.5785C32.3098 47.6891 31.4731 46.8206 31.3197 46.6678C31.3127 46.6608 31.3127 46.6469 31.3197 46.6469C31.4661 46.6678 32.3028 46.7581 32.4283 46.0077C32.4283 46.0008 32.4423 46.0077 32.4423 46.0216Z" fill="black"/>
<path d="M42.0165 47.8419C42.135 48.7313 42.9647 49.5998 43.1181 49.7457C43.1251 49.7526 43.1251 49.7665 43.1181 49.7665C42.9717 49.7457 42.142 49.6553 42.0165 50.4057C42.0165 50.4196 42.0025 50.4057 42.0025 50.3988C41.884 49.5094 41.0473 48.641 40.8939 48.4881C40.8869 48.4811 40.8869 48.4673 40.8939 48.4673C41.0403 48.4881 41.877 48.5784 42.0025 47.828C42.0025 47.8211 42.0165 47.828 42.0165 47.8419Z" fill="black"/>
<path d="M38.829 46.0008C38.9475 46.8902 39.7772 47.7587 39.9306 47.9046C39.9376 47.9115 39.9376 47.9254 39.9306 47.9254C39.7842 47.9046 38.9545 47.8212 38.829 48.5646C38.829 48.5785 38.815 48.5646 38.815 48.5577C38.6965 47.6683 37.8598 46.7998 37.7064 46.647C37.6994 46.64 37.6994 46.6261 37.7064 46.6261C37.8528 46.647 38.6895 46.7373 38.815 45.9869C38.8081 45.9869 38.822 45.9939 38.829 46.0008Z" fill="black"/>
<path d="M35.6356 44.1665C35.7542 45.0559 36.5839 45.9243 36.7373 46.0703C36.7443 46.0772 36.7443 46.0911 36.7373 46.0911C36.5909 46.0703 35.7611 45.9869 35.6356 46.7303C35.6356 46.7442 35.6217 46.7303 35.6217 46.7234C35.5031 45.834 34.6664 44.9655 34.513 44.8127C34.5061 44.8057 34.5061 44.7918 34.513 44.7918C34.6595 44.8127 35.4962 44.903 35.6217 44.1526C35.6217 44.1457 35.6356 44.1526 35.6356 44.1665Z" fill="black"/>
<path d="M32.4423 42.3323C32.5608 43.2216 33.3905 44.0901 33.5439 44.236C33.5509 44.243 33.5509 44.2569 33.5439 44.2569C33.3975 44.236 32.5678 44.1526 32.4423 44.8961C32.4423 44.91 32.4283 44.8961 32.4283 44.8891C32.3098 43.9998 31.4731 43.1313 31.3197 42.9784C31.3127 42.9715 31.3127 42.9576 31.3197 42.9576C31.4661 42.9784 32.3028 43.0688 32.4283 42.3184C32.4283 42.3115 32.4423 42.3184 32.4423 42.3323Z" fill="black"/>
<path d="M42.0165 44.1527C42.135 45.0421 42.9647 45.9106 43.1181 46.0565C43.1251 46.0634 43.1251 46.0773 43.1181 46.0773C42.9717 46.0565 42.142 45.9661 42.0165 46.7165C42.0165 46.7304 42.0025 46.7165 42.0025 46.7096C41.884 45.8202 41.0473 44.9517 40.8939 44.7989C40.8869 44.7919 40.8869 44.778 40.8939 44.778C41.0403 44.7989 41.877 44.8892 42.0025 44.1388C42.0025 44.1319 42.0165 44.1388 42.0165 44.1527Z" fill="black"/>
<path d="M38.829 42.3184C38.9475 43.2077 39.7772 44.0762 39.9306 44.2221C39.9376 44.2291 39.9376 44.2429 39.9306 44.2429C39.7842 44.2221 38.9545 44.1318 38.829 44.8822C38.829 44.8961 38.815 44.8822 38.815 44.8752C38.6965 43.9859 37.8598 43.1174 37.7064 42.9645C37.6994 42.9576 37.6994 42.9437 37.7064 42.9437C37.8528 42.9645 38.6895 43.0549 38.815 42.3045C38.8081 42.2975 38.822 42.3045 38.829 42.3184Z" fill="black"/>
<path d="M35.6356 40.4842C35.7542 41.3735 36.5839 42.242 36.7373 42.3879C36.7443 42.3948 36.7443 42.4087 36.7373 42.4087C36.5909 42.3879 35.7611 42.3045 35.6356 43.0479C35.6356 43.0618 35.6217 43.0479 35.6217 43.041C35.5031 42.1517 34.6664 41.2832 34.513 41.1303C34.5061 41.1234 34.5061 41.1095 34.513 41.1095C34.6595 41.1303 35.4962 41.2206 35.6217 40.4703C35.6217 40.4633 35.6356 40.4703 35.6356 40.4842Z" fill="black"/>
<path d="M32.4423 38.6499C32.5608 39.5393 33.3905 40.4077 33.5439 40.5537C33.5509 40.5606 33.5509 40.5745 33.5439 40.5745C33.3975 40.5537 32.5678 40.4703 32.4423 41.2137C32.4423 41.2276 32.4283 41.2137 32.4283 41.2068C32.3098 40.3174 31.4731 39.4489 31.3197 39.2961C31.3127 39.2891 31.3127 39.2752 31.3197 39.2752C31.4661 39.2961 32.3028 39.3864 32.4283 38.636C32.4283 38.6291 32.4423 38.636 32.4423 38.6499Z" fill="black"/>
<path d="M42.0165 40.4702C42.135 41.3596 42.9647 42.2281 43.1181 42.374C43.1251 42.3809 43.1251 42.3948 43.1181 42.3948C42.9717 42.374 42.142 42.2906 42.0165 43.034C42.0165 43.0479 42.0025 43.034 42.0025 43.0271C41.884 42.1377 41.0473 41.2692 40.8939 41.1164C40.8869 41.1094 40.8869 41.0955 40.8939 41.0955C41.0403 41.1164 41.877 41.2067 42.0025 40.4563C42.0025 40.4494 42.0165 40.4563 42.0165 40.4702Z" fill="black"/>
<path d="M38.829 38.6291C38.9475 39.5184 39.7772 40.3869 39.9306 40.5328C39.9376 40.5397 39.9376 40.5536 39.9306 40.5536C39.7842 40.5328 38.9545 40.4494 38.829 41.1928C38.829 41.2067 38.815 41.1929 38.815 41.1859C38.6965 40.2966 37.8598 39.4281 37.7064 39.2752C37.6994 39.2683 37.6994 39.2544 37.7064 39.2544C37.8528 39.2752 38.6895 39.3655 38.815 38.6152C38.8081 38.6082 38.822 38.6221 38.829 38.6291Z" fill="black"/>
<path d="M35.6356 36.7948C35.7542 37.6842 36.5839 38.5526 36.7373 38.6985C36.7443 38.7055 36.7443 38.7194 36.7373 38.7194C36.5909 38.6985 35.7611 38.6082 35.6356 39.3586C35.6356 39.3725 35.6217 39.3586 35.6217 39.3517C35.5031 38.4623 34.6664 37.5938 34.513 37.441C34.5061 37.434 34.5061 37.4201 34.513 37.4201C34.6595 37.441 35.4962 37.5313 35.6217 36.7809C35.6217 36.774 35.6356 36.7809 35.6356 36.7948Z" fill="black"/>
<path d="M32.4423 34.9606C32.5608 35.8499 33.3905 36.7184 33.5439 36.8643C33.5509 36.8713 33.5509 36.8852 33.5439 36.8852C33.3975 36.8643 32.5678 36.774 32.4423 37.5244C32.4423 37.5383 32.4283 37.5244 32.4283 37.5174C32.3098 36.6281 31.4731 35.7596 31.3197 35.6067C31.3127 35.5998 31.3127 35.5859 31.3197 35.5859C31.4661 35.6067 32.3028 35.6971 32.4283 34.9467C32.4283 34.9397 32.4423 34.9467 32.4423 34.9606Z" fill="black"/>
<path d="M129.563 101.931C129.682 102.814 130.512 103.689 130.665 103.835C130.672 103.842 130.672 103.856 130.665 103.856C130.519 103.835 129.689 103.745 129.563 104.495C129.563 104.509 129.549 104.495 129.549 104.488C129.431 103.599 128.594 102.73 128.441 102.578C128.434 102.571 128.434 102.557 128.441 102.557C128.587 102.578 129.424 102.668 129.549 101.918C129.549 101.911 129.563 101.918 129.563 101.931Z" fill="black"/>
<path d="M126.378 100.097C126.496 100.98 127.326 101.855 127.472 102.001C127.479 102.008 127.479 102.022 127.472 102.022C127.326 102.001 126.496 101.918 126.378 102.661C126.378 102.675 126.364 102.661 126.364 102.654C126.245 101.765 125.409 100.896 125.255 100.743C125.248 100.736 125.248 100.722 125.255 100.722C125.402 100.743 126.238 100.834 126.364 100.083C126.357 100.076 126.371 100.083 126.378 100.097Z" fill="black"/>
<path d="M129.563 98.2421C129.682 99.1314 130.512 99.9999 130.665 100.146C130.672 100.153 130.672 100.167 130.665 100.167C130.519 100.146 129.689 100.062 129.563 100.806C129.563 100.82 129.549 100.806 129.549 100.799C129.431 99.9096 128.594 99.0411 128.441 98.8882C128.434 98.8813 128.434 98.8674 128.441 98.8674C128.587 98.8882 129.424 98.9786 129.549 98.2282C129.549 98.2212 129.563 98.2282 129.563 98.2421Z" fill="black"/>
<path d="M126.378 96.4079C126.496 97.2902 127.326 98.1657 127.472 98.3116C127.479 98.3185 127.479 98.3324 127.472 98.3324C127.326 98.3116 126.496 98.2282 126.378 98.9716C126.378 98.9855 126.364 98.9716 126.364 98.9647C126.245 98.0823 125.409 97.2069 125.255 97.054C125.248 97.0471 125.248 97.0332 125.255 97.0332C125.402 97.054 126.238 97.1443 126.364 96.394C126.357 96.387 126.371 96.394 126.378 96.4079Z" fill="black"/>
<path d="M129.563 94.5597C129.682 95.4421 130.512 96.3175 130.665 96.4634C130.672 96.4704 130.672 96.4843 130.665 96.4843C130.519 96.4634 129.689 96.3801 129.563 97.1235C129.563 97.1374 129.549 97.1235 129.549 97.1165C129.431 96.2272 128.594 95.3587 128.441 95.2059C128.434 95.1989 128.434 95.185 128.441 95.185C128.587 95.2059 129.424 95.2962 129.549 94.5458C129.549 94.5389 129.563 94.5458 129.563 94.5597Z" fill="black"/>
<path d="M126.378 92.7255C126.496 93.6079 127.326 94.4833 127.472 94.6292C127.479 94.6362 127.479 94.65 127.472 94.65C127.326 94.6292 126.496 94.5458 126.378 95.2893C126.378 95.3031 126.364 95.2893 126.364 95.2823C126.245 94.393 125.409 93.5245 125.255 93.3716C125.248 93.3647 125.248 93.3508 125.255 93.3508C125.402 93.3716 126.238 93.462 126.364 92.7116C126.357 92.7046 126.371 92.7116 126.378 92.7255Z" fill="black"/>
<path d="M129.563 90.8704C129.682 91.7528 130.512 92.6282 130.665 92.7741C130.672 92.7811 130.672 92.795 130.665 92.795C130.519 92.7741 129.689 92.6907 129.563 93.4342C129.563 93.4481 129.549 93.4342 129.549 93.4272C129.431 92.5379 128.594 91.6694 128.441 91.5165C128.434 91.5096 128.434 91.4957 128.441 91.4957C128.587 91.5165 129.424 91.6069 129.549 90.8565C129.549 90.8495 129.563 90.8565 129.563 90.8704Z" fill="black"/>
<path d="M126.378 89.0362C126.496 89.9185 127.326 90.794 127.472 90.9399C127.479 90.9468 127.479 90.9607 127.472 90.9607C127.326 90.9399 126.496 90.8496 126.378 91.5999C126.378 91.6138 126.364 91.5999 126.364 91.593C126.245 90.7037 125.409 89.8352 125.255 89.6823C125.248 89.6754 125.248 89.6615 125.255 89.6615C125.402 89.6823 126.238 89.7726 126.364 89.0223C126.357 89.0153 126.371 89.0223 126.378 89.0362Z" fill="black"/>
<path d="M123.184 98.256C123.303 99.1383 124.133 100.014 124.286 100.16C124.293 100.167 124.293 100.181 124.286 100.181C124.14 100.16 123.31 100.076 123.184 100.82C123.184 100.834 123.17 100.82 123.17 100.813C123.052 99.9235 122.215 99.055 122.062 98.9021C122.055 98.8952 122.055 98.8813 122.062 98.8813C122.208 98.9021 123.045 98.9924 123.17 98.2421C123.17 98.2421 123.184 98.249 123.184 98.256Z" fill="black"/>
<path d="M119.989 96.4218C120.108 97.3111 120.937 98.1796 121.091 98.3255C121.098 98.3324 121.098 98.3463 121.091 98.3463C120.944 98.3255 120.115 98.2421 119.989 98.9856C119.989 98.9994 119.975 98.9855 119.975 98.9786C119.857 98.0893 119.02 97.2208 118.867 97.0679C118.86 97.061 118.86 97.0471 118.867 97.0471C119.013 97.0679 119.85 97.1583 119.975 96.4079C119.975 96.4009 119.989 96.4079 119.989 96.4218Z" fill="black"/>
<path d="M123.184 94.5736C123.303 95.463 124.133 96.3314 124.286 96.4774C124.293 96.4843 124.293 96.4982 124.286 96.4982C124.14 96.4774 123.31 96.387 123.184 97.1374C123.184 97.1513 123.17 97.1374 123.17 97.1305C123.052 96.2411 122.215 95.3726 122.062 95.2198C122.055 95.2128 122.055 95.1989 122.062 95.1989C122.208 95.2198 123.045 95.3101 123.17 94.5597C123.17 94.5528 123.184 94.5597 123.184 94.5736Z" fill="black"/>
<path d="M119.989 92.7394C120.108 93.6287 120.937 94.4972 121.091 94.6431C121.098 94.6501 121.098 94.664 121.091 94.664C120.944 94.6431 120.115 94.5528 119.989 95.3032C119.989 95.3171 119.975 95.3032 119.975 95.2962C119.857 94.4069 119.02 93.5384 118.867 93.3856C118.86 93.3786 118.86 93.3647 118.867 93.3647C119.013 93.3856 119.85 93.4759 119.975 92.7255C119.975 92.7186 119.989 92.7255 119.989 92.7394Z" fill="black"/>
<path d="M116.804 90.9052C116.922 91.7945 117.752 92.663 117.905 92.8089C117.912 92.8159 117.912 92.8297 117.905 92.8297C117.759 92.8089 116.929 92.7255 116.804 93.469C116.804 93.4829 116.79 93.469 116.79 93.462C116.671 92.5727 115.834 91.7042 115.681 91.5513C115.674 91.5444 115.674 91.5305 115.681 91.5305C115.827 91.5513 116.664 91.6417 116.79 90.8913C116.79 90.8843 116.804 90.8913 116.804 90.9052Z" fill="black"/>
<path d="M123.184 90.8843C123.303 91.7736 124.133 92.6421 124.286 92.788C124.293 92.7949 124.293 92.8088 124.286 92.8088C124.14 92.788 123.31 92.7046 123.184 93.448C123.184 93.4619 123.17 93.448 123.17 93.4411C123.052 92.5518 122.215 91.6833 122.062 91.5304C122.055 91.5235 122.055 91.5096 122.062 91.5096C122.208 91.5304 123.045 91.6207 123.17 90.8704C123.17 90.8704 123.184 90.8773 123.184 90.8843Z" fill="black"/>
<path d="M119.989 89.0501C120.108 89.9394 120.937 90.8079 121.091 90.9538C121.098 90.9607 121.098 90.9746 121.091 90.9746C120.944 90.9538 120.115 90.8704 119.989 91.6138C119.989 91.6277 119.975 91.6138 119.975 91.6069C119.857 90.7176 119.02 89.8491 118.867 89.6962C118.86 89.6893 118.86 89.6754 118.867 89.6754C119.013 89.6962 119.85 89.7865 119.975 89.0362C119.975 89.0292 119.989 89.0362 119.989 89.0501Z" fill="black"/>
<path d="M116.804 87.2158C116.922 88.1052 117.752 88.9737 117.905 89.1196C117.912 89.1265 117.912 89.1404 117.905 89.1404C117.759 89.1196 116.929 89.0292 116.804 89.7796C116.804 89.7935 116.79 89.7796 116.79 89.7727C116.671 88.8833 115.834 88.0149 115.681 87.862C115.674 87.855 115.674 87.8412 115.681 87.8412C115.827 87.862 116.664 87.9523 116.79 87.2019C116.79 87.195 116.804 87.2019 116.804 87.2158Z" fill="black"/>
<path d="M113.61 85.3816C113.729 86.2709 114.558 87.1394 114.712 87.2853C114.719 87.2923 114.719 87.3062 114.712 87.3062C114.565 87.2853 113.736 87.195 113.61 87.9454C113.61 87.9593 113.596 87.9454 113.596 87.9384C113.478 87.0491 112.641 86.1806 112.488 86.0278C112.481 86.0208 112.481 86.0069 112.488 86.0069C112.634 86.0278 113.471 86.1181 113.596 85.3677C113.596 85.3608 113.61 85.3677 113.61 85.3816Z" fill="black"/>
<path d="M123.184 87.2019C123.303 88.0913 124.133 88.9597 124.286 89.1057C124.293 89.1126 124.293 89.1265 124.286 89.1265C124.14 89.1057 123.31 89.0223 123.184 89.7657C123.184 89.7796 123.17 89.7657 123.17 89.7588C123.052 88.8694 122.215 88.0009 122.062 87.8481C122.055 87.8411 122.055 87.8272 122.062 87.8272C122.208 87.8481 123.045 87.9384 123.17 87.188C123.17 87.1811 123.184 87.188 123.184 87.2019Z" fill="black"/>
<path d="M119.989 85.3677C120.108 86.257 120.937 87.1255 121.091 87.2714C121.098 87.2784 121.098 87.2923 121.091 87.2923C120.944 87.2714 120.115 87.1881 119.989 87.9315C119.989 87.9454 119.975 87.9315 119.975 87.9245C119.857 87.0352 119.02 86.1667 118.867 86.0139C118.86 86.0069 118.86 85.993 118.867 85.993C119.013 86.0139 119.85 86.1042 119.975 85.3538C119.975 85.3469 119.989 85.3538 119.989 85.3677Z" fill="black"/>
<path d="M116.804 83.5333C116.922 84.4227 117.752 85.2912 117.905 85.4371C117.912 85.444 117.912 85.4579 117.905 85.4579C117.759 85.4371 116.929 85.3537 116.804 86.0971C116.804 86.111 116.79 86.0971 116.79 86.0902C116.671 85.2008 115.834 84.3324 115.681 84.1795C115.674 84.1726 115.674 84.1587 115.681 84.1587C115.827 84.1795 116.664 84.2698 116.79 83.5194C116.79 83.5125 116.804 83.5195 116.804 83.5333Z" fill="black"/>
<path d="M113.61 81.6922C113.729 82.5816 114.558 83.4501 114.712 83.596C114.719 83.6029 114.719 83.6168 114.712 83.6168C114.565 83.596 113.736 83.5056 113.61 84.256C113.61 84.2699 113.596 84.256 113.596 84.2491C113.478 83.3597 112.641 82.4912 112.488 82.3384C112.481 82.3314 112.481 82.3175 112.488 82.3175C112.634 82.3384 113.471 82.4287 113.596 81.6783C113.596 81.6783 113.61 81.6853 113.61 81.6922Z" fill="black"/>
<path d="M100.432 110.63L98.7233 101.306H92.943L92.8454 101.063L90.5654 94.4973L83.1745 91.2526L77.3246 94.4417L79.8347 102.856L79.1932 103.043L76.7249 94.7682L73.413 96.5747H73.3154L70.1429 96.6094L60.5208 91.2456L51.7633 94.6154L51.4355 94.1429L51.6447 93.9206L60.0675 86.0347L65.3736 84.9786L65.5201 85.1106L69.9476 89.995L75.7279 89.1474L75.8324 89.4461L77.1224 93.7816L83.1257 90.5092L83.3 90.5786L91.0953 93.997L93.4032 100.632H99.2602L99.3299 100.924L101.087 110.498L100.432 110.63ZM60.5556 90.5161L60.716 90.5925L70.3102 95.9424L73.2317 95.9146L76.5297 94.1151L75.2677 89.8978L69.7106 90.7107L69.5711 90.5856L65.1505 85.7082L60.3813 86.66L53.2554 93.337L60.5556 90.5161Z" fill="black"/>
<path d="M51.9107 94.3234L104.435 124.644C104.449 124.651 104.47 124.644 104.47 124.623V100.993C104.47 100.98 104.456 100.966 104.442 100.973L92.1213 104.488C92.1144 104.488 92.1074 104.488 92.1004 104.488L86.5224 100.966C86.5154 100.966 86.5154 100.966 86.5084 100.966L70.5623 101.16H70.5553L60.229 96.2827C60.229 96.2827 60.229 96.2827 60.222 96.2827L51.9247 94.2887C51.9038 94.2817 51.8898 94.3095 51.9107 94.3234Z" fill="#01FFA9"/>
<path d="M104.456 125.033L104.267 124.936L51.7432 94.6153L51.4922 94.4694L51.6944 93.9066L52.0012 93.9622L60.3682 95.9771L70.6318 100.834L86.6268 100.639L86.7314 100.716L92.156 104.141L104.504 100.611L104.79 100.813L104.797 100.993V124.818L104.456 125.033ZM53.9326 95.1086L104.135 124.088V101.41L92.0654 104.857L91.9189 104.773L86.4176 101.299L70.4854 101.494L70.4017 101.459L60.0754 96.5746L53.9326 95.1086Z" fill="black"/>
</svg>
